<svg xmlns="http://www.w3.org/2000/svg" xmlns:xlink="http://www.w3.org/1999/xlink" enable-background="new 0 0 1000 1000" viewBox="0 0 1000 1000" id="e-book"><path fill="#c2d8f2" d="M803.1,736.43c0,0,2.46-95.88-16.88-152.85c-19.34-56.97,41.24-117.27,8.39-199.97    c-24.23-60.99-162.83-171.34-307.69-120.83c-109.99,38.35-59.53,91.23-81.31,148.11c-21.78,56.88-53.52,119.7-65,132.22    c-11.48,12.51,10.69-48.28,10.74-75.34c0.05-27.06-81.92-1.87-109.25,39.37c-27.33,41.24,8.4,171.51,22.73,197.22    c14.32,25.71,49.21,32.07,49.21,32.07L803.1,736.43z"></path><path fill="#9bd" d="M747.61 482.76c-7.28 0-13.21-5.92-13.21-13.21 0-7.28 5.92-13.21 13.21-13.21 7.28 0 13.21 5.92 13.21 13.21C760.82 476.83 754.89 482.76 747.61 482.76zM747.61 459.55c-5.52 0-10.01 4.49-10.01 10.01 0 5.52 4.49 10.01 10.01 10.01 5.52 0 10.01-4.49 10.01-10.01C757.62 464.03 753.13 459.55 747.61 459.55zM338.59 326.16c-7.28 0-13.21-5.92-13.21-13.21s5.92-13.21 13.21-13.21c7.28 0 13.21 5.92 13.21 13.21S345.87 326.16 338.59 326.16zM338.59 302.95c-5.52 0-10.01 4.49-10.01 10.01 0 5.52 4.49 10.01 10.01 10.01 5.52 0 10.01-4.49 10.01-10.01C348.59 307.43 344.11 302.95 338.59 302.95zM217.17 533.84c-7.28 0-13.21-5.92-13.21-13.21s5.92-13.21 13.21-13.21c7.28 0 13.21 5.92 13.21 13.21S224.46 533.84 217.17 533.84zM217.17 510.63c-5.52 0-10.01 4.49-10.01 10.01 0 5.52 4.49 10.01 10.01 10.01 5.52 0 10.01-4.49 10.01-10.01C227.18 515.11 222.69 510.63 217.17 510.63zM535.11 326.16c-7.28 0-13.21-5.92-13.21-13.21s5.92-13.21 13.21-13.21c7.28 0 13.21 5.92 13.21 13.21S542.4 326.16 535.11 326.16zM535.11 302.95c-5.52 0-10.01 4.49-10.01 10.01 0 5.52 4.49 10.01 10.01 10.01 5.52 0 10.01-4.49 10.01-10.01C545.12 307.43 540.63 302.95 535.11 302.95zM231.67 496.63c-.24 0-.48-.02-.72-.07l-12.98-2.47h0 0c-1.48-.28-2.67-1.41-3.03-2.88l-1.17-4.81 23.92 4.56-2.86 4.04C234.1 496.03 232.91 496.63 231.67 496.63zM218.06 490.47c.07.24.27.42.51.47h0l12.98 2.47c.25.05.5-.05.65-.25L218.06 490.47z"></path><path fill="#9bd" d="M235.85,493.7c-0.55,0-1.11-0.05-1.67-0.16l-18.11-3.45c-2.55-0.48-4.75-2.05-6.04-4.3l-4.23-7.36        c-1.06-1.84-1.43-4.01-1.03-6.1l3.77-19.81l46.45,8.84l-3.77,19.81c-0.4,2.09-1.53,3.97-3.2,5.29l-6.64,5.29        C239.79,493.03,237.84,493.7,235.85,493.7z M211.09,456.28l-3.17,16.66c-0.25,1.34-0.02,2.72,0.66,3.9l4.23,7.36        c0.83,1.44,2.24,2.44,3.87,2.75l18.11,3.45c1.63,0.31,3.31-0.1,4.61-1.14l6.64-5.28c1.06-0.85,1.79-2.05,2.05-3.39l3.17-16.66        L211.09,456.28z"></path><path fill="#9bd" d="M252.91,464.15c-0.31,0-0.61-0.03-0.92-0.08c-14.17-0.72-28.23-3.4-41.81-7.96        c-2.8-0.59-4.74-3.25-4.43-6.11c1.35-12.53-1.33-17.34-5.4-24.62c-2-3.58-4.26-7.64-6.56-13.38l-0.13-0.31        c-0.12-0.3-0.24-0.61-0.35-0.92l-0.1-0.26c-0.1-0.28-0.2-0.56-0.3-0.84c-0.04-0.12-0.08-0.24-0.13-0.36        c-0.1-0.3-0.2-0.61-0.3-0.91l-0.07-0.2c-0.11-0.36-0.23-0.72-0.33-1.09l-0.1-0.34c-0.08-0.28-0.16-0.56-0.23-0.84l-0.09-0.32        c-0.1-0.37-0.19-0.74-0.28-1.11l-0.06-0.26c-0.07-0.3-0.14-0.6-0.21-0.9l-0.08-0.36c-0.07-0.34-0.14-0.67-0.2-1.01l-0.03-0.15        c-0.07-0.38-0.14-0.76-0.2-1.15l-0.05-0.34c-0.05-0.3-0.09-0.6-0.14-0.9l-0.04-0.3c-0.05-0.39-0.1-0.77-0.15-1.16l-0.03-0.25        c-0.04-0.32-0.07-0.64-0.1-0.96l-0.03-0.35c-0.03-0.37-0.06-0.73-0.08-1.1l-0.01-0.09c-0.03-0.4-0.04-0.8-0.06-1.19        l-0.01-0.33c-0.01-0.32-0.02-0.64-0.02-0.95l-0.01-0.29c0-0.4-0.01-0.8,0-1.2l0-0.25c0-0.33,0.01-0.66,0.02-0.99l0.01-0.34        c0.02-0.39,0.03-0.79,0.06-1.18l0-0.04c0.03-0.41,0.06-0.81,0.09-1.22l0.03-0.33c0.03-0.33,0.06-0.66,0.1-0.99l0.03-0.27        c0.05-0.41,0.1-0.82,0.15-1.22l0.04-0.26c0.05-0.33,0.1-0.67,0.15-1l0.05-0.34c0.07-0.41,0.14-0.82,0.22-1.24        c0.09-0.45,0.18-0.9,0.27-1.35c0.02-0.09,0.04-0.18,0.06-0.26l0.05-0.22c0.06-0.28,0.13-0.57,0.2-0.85        c0.03-0.11,0.06-0.22,0.08-0.33l0.07-0.28c0.06-0.24,0.12-0.47,0.18-0.71c0.03-0.12,0.07-0.25,0.1-0.37l0.09-0.31        c0.06-0.21,0.12-0.42,0.18-0.62c0.04-0.14,0.08-0.27,0.13-0.41l0.07-0.24c0.07-0.21,0.13-0.43,0.2-0.64        c0.05-0.14,0.09-0.29,0.14-0.43l0.07-0.22c0.07-0.21,0.14-0.41,0.21-0.62c0.05-0.15,0.11-0.3,0.16-0.45l0.06-0.17        c0.08-0.21,0.15-0.42,0.23-0.63c0.06-0.16,0.13-0.33,0.19-0.49l0.03-0.08c0.09-0.22,0.17-0.45,0.26-0.67        c0.07-0.18,0.14-0.35,0.22-0.52l0.02-0.04c0.09-0.22,0.18-0.44,0.28-0.65c0.08-0.19,0.17-0.38,0.25-0.56        c0.1-0.22,0.19-0.43,0.29-0.64c0.09-0.19,0.18-0.37,0.26-0.56c0.1-0.21,0.2-0.42,0.31-0.63c0.09-0.18,0.18-0.37,0.28-0.55        c0.11-0.21,0.21-0.41,0.32-0.62c0.1-0.18,0.19-0.36,0.29-0.54c0.11-0.2,0.22-0.41,0.33-0.61c0.1-0.18,0.2-0.36,0.3-0.54        c0.11-0.2,0.23-0.4,0.35-0.6c0.1-0.18,0.21-0.35,0.31-0.53c0.12-0.2,0.24-0.39,0.36-0.59c0.11-0.17,0.22-0.35,0.33-0.52        c0.12-0.19,0.25-0.39,0.38-0.58c0.11-0.17,0.22-0.34,0.34-0.51c0.13-0.19,0.26-0.38,0.39-0.57l0.05-0.07        c0.1-0.14,0.2-0.29,0.3-0.43c0.13-0.18,0.25-0.35,0.38-0.53l0.08-0.11c0.1-0.13,0.2-0.27,0.29-0.4        c0.13-0.17,0.25-0.33,0.38-0.5l0.14-0.18c0.09-0.12,0.18-0.23,0.27-0.35c0.13-0.16,0.26-0.33,0.39-0.49l0.15-0.18        c0.09-0.11,0.18-0.22,0.27-0.33c0.13-0.15,0.25-0.31,0.38-0.46l0.19-0.22c0.09-0.1,0.17-0.21,0.26-0.31        c0.14-0.16,0.28-0.32,0.42-0.48l0.18-0.2c0.09-0.1,0.17-0.19,0.26-0.29c0.14-0.15,0.28-0.3,0.42-0.46l0.22-0.24        c0.08-0.08,0.15-0.17,0.23-0.25c0.18-0.19,0.37-0.38,0.55-0.57l0.16-0.16c0.06-0.06,0.12-0.13,0.19-0.19        c0.3-0.3,0.6-0.6,0.91-0.9c0.05-0.04,0.09-0.09,0.14-0.13l0.09-0.08c0.24-0.22,0.47-0.45,0.71-0.66        c0.08-0.07,0.16-0.15,0.24-0.22l0.24-0.21c0.16-0.14,0.32-0.28,0.48-0.42c0.09-0.08,0.19-0.16,0.28-0.24l0.24-0.21        c0.15-0.13,0.3-0.26,0.45-0.38c0.1-0.09,0.21-0.17,0.32-0.26l0.24-0.19c0.15-0.12,0.29-0.24,0.44-0.35        c0.11-0.09,0.22-0.17,0.33-0.26l0.22-0.17c0.15-0.12,0.3-0.24,0.46-0.35c0.12-0.09,0.25-0.19,0.38-0.28l0.16-0.12        c0.16-0.12,0.32-0.24,0.49-0.36c0.13-0.09,0.26-0.19,0.39-0.28l0.16-0.11c0.16-0.11,0.33-0.23,0.49-0.34        c0.15-0.1,0.29-0.2,0.44-0.3l0.07-0.04c0.2-0.13,0.38-0.25,0.56-0.37c0.16-0.1,0.32-0.21,0.48-0.31l0.04-0.02        c0.19-0.12,0.37-0.24,0.56-0.35c0.18-0.11,0.35-0.21,0.53-0.32c0.19-0.11,0.38-0.23,0.57-0.34c0.18-0.1,0.36-0.21,0.53-0.31        c0.19-0.11,0.38-0.22,0.58-0.33c0.18-0.1,0.36-0.2,0.54-0.3c0.19-0.1,0.39-0.21,0.58-0.31c0.18-0.1,0.37-0.19,0.55-0.29        c0.2-0.1,0.39-0.2,0.59-0.3c0.18-0.09,0.37-0.18,0.56-0.27c0.2-0.1,0.4-0.19,0.6-0.28c0.19-0.09,0.38-0.17,0.56-0.26        c0.2-0.09,0.4-0.18,0.61-0.27c0.19-0.08,0.38-0.17,0.57-0.25c0.2-0.09,0.41-0.17,0.61-0.25l0.03-0.01        c0.18-0.08,0.37-0.15,0.55-0.22c0.2-0.08,0.41-0.16,0.62-0.24l0.05-0.02c0.18-0.07,0.36-0.14,0.54-0.2        c0.2-0.07,0.41-0.15,0.61-0.22l0.1-0.04c0.17-0.06,0.33-0.12,0.5-0.18c0.18-0.06,0.36-0.12,0.54-0.18l0.21-0.07        c0.16-0.05,0.31-0.1,0.47-0.15c0.18-0.06,0.36-0.11,0.53-0.16l0.26-0.08c0.15-0.04,0.29-0.09,0.44-0.13        c0.18-0.05,0.35-0.1,0.53-0.15l0.3-0.08c0.14-0.04,0.28-0.08,0.42-0.11c0.17-0.04,0.34-0.09,0.51-0.13l0.35-0.09        c0.13-0.03,0.27-0.07,0.4-0.1c0.18-0.04,0.35-0.08,0.53-0.12l0.36-0.08c0.12-0.03,0.25-0.06,0.37-0.08        c0.21-0.04,0.42-0.09,0.63-0.13l0.34-0.07c0.1-0.02,0.21-0.04,0.31-0.06c0.42-0.08,0.84-0.15,1.27-0.22        c0.11-0.02,0.23-0.04,0.34-0.05l0.33-0.05c0.21-0.03,0.41-0.06,0.62-0.09c0.13-0.02,0.27-0.04,0.4-0.05l0.35-0.05        c0.18-0.02,0.36-0.05,0.55-0.07c0.14-0.02,0.29-0.03,0.43-0.05l0.35-0.04c0.17-0.02,0.35-0.04,0.52-0.05        c0.15-0.01,0.3-0.03,0.45-0.04l0.33-0.03c0.18-0.01,0.35-0.03,0.53-0.04c0.16-0.01,0.33-0.02,0.49-0.03l0.27-0.01        c0.19-0.01,0.37-0.02,0.56-0.03c0.17-0.01,0.34-0.01,0.51-0.02l0.21-0.01c0.2-0.01,0.4-0.01,0.6-0.02c0.19,0,0.37,0,0.56,0        l0.15,0c0.21,0,0.41,0,0.62,0c0.2,0,0.4,0.01,0.6,0.01l0.06,0c0.22,0,0.45,0.01,0.67,0.02c0.22,0.01,0.44,0.02,0.66,0.03        c0.23,0.01,0.45,0.02,0.68,0.03c0.22,0.01,0.44,0.03,0.67,0.04c0.23,0.02,0.45,0.03,0.68,0.05c0.22,0.02,0.45,0.04,0.67,0.06        c0.23,0.02,0.45,0.04,0.68,0.07c0.22,0.02,0.45,0.05,0.67,0.08l0.13,0.02c0.07,0.01,0.14,0.02,0.21,0.02        c0.06,0.01,0.12,0.02,0.18,0.03l0.11,0.02c0.29,0.04,0.58,0.08,0.86,0.12c0.2,0.03,0.4,0.06,0.61,0.09        c0.28,0.04,0.56,0.09,0.83,0.14l0.1,0.02c0.17,0.03,0.35,0.06,0.52,0.09l0.22,0.04c0.15,0.03,0.3,0.06,0.44,0.09l0.37,0.08        c0.13,0.03,0.26,0.05,0.38,0.08c0.38,0.08,0.75,0.17,1.13,0.25l0.25,0.06c26.78,6.44,44.48,31.9,41.19,59.24l-0.03,0.26        c-0.05,0.37-0.09,0.73-0.15,1.1c-0.02,0.16-0.05,0.33-0.07,0.49c-0.05,0.3-0.09,0.59-0.15,0.89c-0.03,0.2-0.07,0.41-0.11,0.61        l-0.02,0.14c-0.01,0.07-0.02,0.14-0.04,0.22c-0.02,0.1-0.04,0.19-0.06,0.28l-0.04,0.17c-0.04,0.21-0.08,0.42-0.13,0.63        c-0.06,0.28-0.12,0.55-0.18,0.83l-0.02,0.1c-0.04,0.16-0.07,0.32-0.11,0.48c-0.07,0.31-0.15,0.62-0.23,0.92l-0.04,0.15        c-0.02,0.08-0.04,0.16-0.06,0.24l-0.12,0.44c-0.09,0.35-0.19,0.69-0.29,1.03l-0.04,0.15c-0.11,0.38-0.23,0.75-0.35,1.12        l-0.1,0.3c-0.12,0.36-0.24,0.73-0.37,1.09l-0.08,0.23c-0.11,0.32-0.23,0.63-0.35,0.95l-0.09,0.25        c-0.14,0.35-0.27,0.7-0.42,1.05l-0.12,0.29c-0.14,0.35-0.29,0.7-0.44,1.04l-0.06,0.14c-0.14,0.32-0.29,0.64-0.44,0.96        l-0.13,0.28c-0.16,0.34-0.32,0.67-0.49,1l-0.13,0.26c-0.15,0.29-0.3,0.59-0.45,0.87l-0.1,0.2c-0.18,0.33-0.35,0.65-0.54,0.98        l-0.16,0.28c-0.18,0.32-0.37,0.64-0.56,0.96l-0.12,0.2c-0.16,0.27-0.33,0.55-0.5,0.82l-0.16,0.26        c-0.19,0.31-0.39,0.61-0.59,0.91l-0.18,0.27c-0.18,0.27-0.37,0.55-0.56,0.82l-0.13,0.19c-0.2,0.29-0.41,0.57-0.61,0.85        l-0.2,0.27c-0.21,0.29-0.43,0.57-0.65,0.85l-0.19,0.24c-0.19,0.24-0.37,0.47-0.56,0.71l-0.19,0.23        c-0.22,0.27-0.45,0.54-0.68,0.81l-0.23,0.27c-0.23,0.26-0.46,0.53-0.69,0.79l-0.17,0.19c-0.13,0.14-0.26,0.29-0.39,0.43        l-0.4,0.43c-4.27,4.54-7.92,7.5-11.14,10.11c-6.5,5.27-10.8,8.76-14.13,20.83C257.67,462.48,255.4,464.15,252.91,464.15z         M244.31,340.62c-0.12,0-0.25,0-0.37,0l-0.15,0c-0.17,0-0.35,0-0.52,0c-0.19,0-0.37,0.01-0.56,0.01l-0.22,0.01        c-0.15,0-0.31,0.01-0.46,0.02c-0.17,0.01-0.35,0.02-0.52,0.03l-0.27,0.01c-0.15,0.01-0.3,0.02-0.45,0.03        c-0.16,0.01-0.33,0.02-0.49,0.04l-0.34,0.03c-0.14,0.01-0.27,0.02-0.4,0.03c-0.16,0.01-0.32,0.03-0.48,0.05l-0.36,0.04        c-0.13,0.01-0.26,0.03-0.39,0.04c-0.17,0.02-0.33,0.04-0.5,0.06l-0.37,0.05c-0.12,0.01-0.24,0.03-0.35,0.05        c-0.19,0.03-0.38,0.06-0.57,0.09l-0.36,0.05c-0.1,0.01-0.19,0.03-0.29,0.04c-0.4,0.07-0.8,0.14-1.19,0.21        c-0.09,0.02-0.17,0.03-0.26,0.05l-0.36,0.07c-0.19,0.04-0.39,0.08-0.58,0.12c-0.11,0.02-0.22,0.05-0.33,0.07l-0.38,0.09        c-0.16,0.04-0.32,0.07-0.48,0.11c-0.12,0.03-0.24,0.06-0.36,0.09l-0.36,0.09c-0.15,0.04-0.31,0.08-0.46,0.12        c-0.13,0.03-0.25,0.07-0.38,0.1l-0.31,0.09c-0.16,0.04-0.33,0.09-0.49,0.14c-0.13,0.04-0.27,0.08-0.4,0.12l-0.27,0.08        c-0.16,0.05-0.33,0.1-0.49,0.15c-0.14,0.05-0.29,0.09-0.43,0.14l-0.22,0.07c-0.17,0.06-0.34,0.11-0.5,0.17        c-0.15,0.05-0.31,0.11-0.46,0.16l-0.09,0.03c-0.21,0.07-0.4,0.14-0.59,0.21c-0.17,0.06-0.33,0.13-0.5,0.19l-0.05,0.02        c-0.19,0.07-0.39,0.15-0.58,0.23c-0.17,0.07-0.35,0.14-0.52,0.21l-0.03,0.01c-0.19,0.08-0.38,0.16-0.57,0.24        c-0.18,0.08-0.36,0.15-0.54,0.23c-0.19,0.08-0.38,0.17-0.57,0.25c-0.18,0.08-0.35,0.16-0.53,0.24        c-0.19,0.09-0.37,0.18-0.56,0.27c-0.18,0.08-0.35,0.17-0.53,0.26c-0.19,0.09-0.37,0.19-0.56,0.28        c-0.17,0.09-0.35,0.18-0.52,0.27c-0.18,0.1-0.37,0.19-0.55,0.29c-0.17,0.09-0.34,0.19-0.51,0.28c-0.18,0.1-0.36,0.2-0.54,0.31        c-0.17,0.1-0.34,0.19-0.5,0.29c-0.18,0.11-0.36,0.21-0.54,0.32c-0.17,0.1-0.33,0.2-0.5,0.3c-0.18,0.11-0.35,0.22-0.53,0.33        l-0.03,0.02c-0.15,0.1-0.3,0.19-0.45,0.29c-0.17,0.11-0.34,0.22-0.51,0.34l-0.08,0.05c-0.14,0.09-0.27,0.18-0.41,0.28        c-0.15,0.11-0.31,0.21-0.46,0.32l-0.16,0.11c-0.12,0.09-0.24,0.17-0.36,0.26c-0.15,0.11-0.3,0.22-0.45,0.33l-0.17,0.12        c-0.12,0.08-0.23,0.17-0.34,0.26c-0.14,0.11-0.28,0.22-0.42,0.33l-0.23,0.18c-0.1,0.08-0.2,0.15-0.3,0.23        c-0.14,0.11-0.27,0.22-0.4,0.33l-0.25,0.2c-0.09,0.08-0.19,0.15-0.28,0.23c-0.14,0.12-0.28,0.23-0.41,0.35l-0.25,0.22        c-0.08,0.07-0.17,0.14-0.25,0.21c-0.15,0.13-0.29,0.26-0.44,0.39l-0.25,0.23c-0.07,0.06-0.14,0.12-0.21,0.19        c-0.22,0.21-0.45,0.42-0.67,0.63l-0.21,0.2c-0.29,0.28-0.58,0.56-0.86,0.84c-0.05,0.05-0.1,0.1-0.15,0.16l-0.17,0.18        c-0.17,0.18-0.35,0.35-0.52,0.53c-0.07,0.07-0.13,0.14-0.2,0.22l-0.23,0.25c-0.13,0.14-0.26,0.28-0.39,0.42        c-0.08,0.08-0.15,0.17-0.23,0.26l-0.19,0.21c-0.13,0.15-0.26,0.29-0.39,0.44c-0.08,0.09-0.16,0.18-0.23,0.28l-0.19,0.23        c-0.12,0.14-0.24,0.28-0.35,0.42c-0.08,0.1-0.16,0.2-0.25,0.3l-0.15,0.19c-0.12,0.15-0.24,0.3-0.36,0.45        c-0.08,0.11-0.16,0.21-0.25,0.32l-0.14,0.18c-0.12,0.15-0.24,0.31-0.35,0.47c-0.09,0.12-0.18,0.25-0.27,0.37l-0.08,0.11        c-0.12,0.17-0.24,0.33-0.36,0.5c-0.09,0.13-0.19,0.27-0.28,0.4l-0.05,0.07c-0.12,0.18-0.25,0.36-0.37,0.53        c-0.11,0.16-0.21,0.32-0.32,0.48c-0.12,0.18-0.24,0.36-0.35,0.54c-0.1,0.16-0.2,0.32-0.31,0.49        c-0.11,0.18-0.23,0.37-0.34,0.55c-0.1,0.17-0.2,0.33-0.3,0.5c-0.11,0.19-0.22,0.37-0.33,0.56c-0.1,0.17-0.19,0.33-0.28,0.5        c-0.11,0.19-0.21,0.38-0.32,0.57c-0.09,0.17-0.18,0.34-0.27,0.51c-0.1,0.19-0.2,0.39-0.3,0.58c-0.09,0.17-0.17,0.34-0.26,0.52        c-0.1,0.2-0.19,0.4-0.29,0.59c-0.08,0.17-0.17,0.35-0.25,0.52c-0.09,0.2-0.18,0.4-0.28,0.6c-0.08,0.18-0.16,0.35-0.24,0.53        c-0.09,0.2-0.18,0.41-0.26,0.61l-0.02,0.05c-0.07,0.16-0.14,0.33-0.2,0.49c-0.08,0.21-0.17,0.42-0.25,0.63l-0.03,0.08        c-0.06,0.15-0.12,0.3-0.18,0.45c-0.07,0.2-0.15,0.39-0.22,0.59l-0.06,0.18c-0.05,0.14-0.1,0.27-0.15,0.41        c-0.07,0.19-0.13,0.38-0.2,0.58l-0.08,0.23c-0.04,0.13-0.09,0.26-0.13,0.39c-0.06,0.2-0.12,0.39-0.18,0.59l-0.08,0.25        c-0.04,0.12-0.08,0.25-0.11,0.37c-0.06,0.19-0.11,0.38-0.16,0.58l-0.09,0.32c-0.03,0.11-0.06,0.22-0.09,0.33        c-0.06,0.22-0.11,0.44-0.17,0.66l-0.08,0.3c-0.02,0.1-0.05,0.19-0.07,0.29c-0.06,0.26-0.12,0.53-0.18,0.79l-0.06,0.25        c-0.02,0.07-0.03,0.14-0.05,0.21c-0.09,0.42-0.18,0.84-0.26,1.27c-0.07,0.39-0.14,0.78-0.21,1.16l-0.05,0.32        c-0.05,0.31-0.1,0.63-0.14,0.94l-0.04,0.25c-0.05,0.38-0.1,0.77-0.14,1.15l-0.03,0.26c-0.03,0.31-0.06,0.62-0.09,0.93        l-0.03,0.31c-0.03,0.38-0.06,0.77-0.09,1.15l0,0.04c-0.02,0.37-0.04,0.74-0.05,1.11l-0.01,0.32        c-0.01,0.31-0.02,0.62-0.02,0.93l0,0.24c0,0.38,0,0.75,0,1.13l0.01,0.27c0.01,0.3,0.01,0.6,0.02,0.9l0.01,0.31        c0.02,0.37,0.03,0.75,0.06,1.12l0.01,0.08c0.02,0.35,0.05,0.7,0.08,1.04l0.03,0.32c0.03,0.3,0.06,0.6,0.09,0.9l0.03,0.24        c0.04,0.36,0.09,0.73,0.14,1.09l0.04,0.29c0.04,0.28,0.08,0.57,0.13,0.85l0.05,0.32c0.06,0.36,0.12,0.72,0.19,1.08l0.03,0.14        c0.06,0.32,0.13,0.63,0.19,0.95l0.07,0.34c0.06,0.28,0.13,0.57,0.19,0.85l0.06,0.24c0.08,0.35,0.17,0.7,0.26,1.04l0.08,0.3        c0.07,0.26,0.14,0.53,0.22,0.79l0.09,0.33c0.1,0.34,0.2,0.68,0.31,1.02l0.06,0.19c0.09,0.29,0.19,0.57,0.28,0.85        c0.04,0.11,0.08,0.23,0.12,0.34c0.09,0.27,0.19,0.53,0.29,0.8l0.09,0.25c0.11,0.29,0.22,0.58,0.33,0.86v0l0.12,0.3        c2.22,5.56,4.43,9.52,6.38,13.01c4.2,7.54,7.24,12.98,5.78,26.52c-0.13,1.25,0.73,2.41,1.96,2.65l0.11,0.02l0.1,0.04        c13.36,4.5,27.2,7.13,41.14,7.83l0.11,0.01l0.11,0.02c1.23,0.23,2.46-0.53,2.79-1.74c3.6-13.06,8.47-17.01,15.2-22.47        c3.14-2.55,6.71-5.44,10.83-9.83l0.38-0.41c0.12-0.13,0.25-0.27,0.37-0.4l0.16-0.18c0.22-0.25,0.44-0.49,0.65-0.74l0.22-0.25        c0.22-0.25,0.43-0.51,0.64-0.76l0.17-0.21c0.18-0.22,0.36-0.44,0.53-0.67l0.18-0.22c0.21-0.26,0.41-0.53,0.61-0.8l0.19-0.26        c0.19-0.26,0.39-0.53,0.58-0.8l0.12-0.17c0.18-0.25,0.35-0.51,0.53-0.77l0.17-0.26c0.19-0.28,0.37-0.57,0.56-0.86l0.15-0.24        c0.16-0.26,0.32-0.51,0.47-0.77l0.11-0.19c0.18-0.29,0.35-0.6,0.52-0.9l0.15-0.27c0.17-0.3,0.34-0.61,0.5-0.92l0.1-0.19        c0.14-0.27,0.29-0.55,0.43-0.82l0.12-0.24c0.16-0.31,0.31-0.63,0.46-0.94l0.12-0.26c0.14-0.3,0.28-0.6,0.41-0.91l0.06-0.13        c0.14-0.33,0.28-0.66,0.42-0.98l0.11-0.27c0.13-0.33,0.27-0.66,0.39-0.99l0.09-0.23c0.11-0.3,0.22-0.59,0.33-0.89l0.08-0.22        c0.12-0.34,0.23-0.68,0.35-1.02l0.09-0.28c0.11-0.35,0.22-0.7,0.33-1.05l0.04-0.14c0.1-0.32,0.19-0.65,0.28-0.97l0.11-0.42        c0.02-0.06,0.03-0.12,0.04-0.18l0.05-0.18c0.07-0.29,0.15-0.58,0.22-0.87c0.04-0.15,0.07-0.3,0.1-0.44l0.02-0.11        c0.06-0.26,0.12-0.52,0.17-0.78c0.04-0.2,0.08-0.4,0.12-0.6l0.04-0.2c0.02-0.08,0.03-0.15,0.05-0.23        c0.01-0.05,0.02-0.11,0.03-0.16l0.03-0.17c0.03-0.19,0.07-0.38,0.1-0.57c0.05-0.28,0.09-0.56,0.14-0.84        c0.02-0.15,0.05-0.31,0.07-0.46c0.05-0.35,0.1-0.69,0.14-1.03l0.03-0.25c3.1-25.73-13.56-49.69-38.76-55.75l-0.24-0.05        c-0.35-0.08-0.71-0.16-1.06-0.24c-0.11-0.02-0.23-0.05-0.34-0.07l-0.4-0.08c-0.13-0.03-0.26-0.05-0.39-0.08l-0.21-0.04        c-0.16-0.03-0.32-0.06-0.48-0.09l-0.1-0.02c-0.26-0.05-0.52-0.09-0.79-0.13c-0.19-0.03-0.38-0.06-0.57-0.09        c-0.27-0.04-0.54-0.08-0.81-0.11l-0.6-0.08c-0.21-0.02-0.42-0.05-0.63-0.07c-0.21-0.02-0.42-0.04-0.64-0.06        c-0.21-0.02-0.42-0.04-0.63-0.06c-0.21-0.02-0.42-0.03-0.64-0.05c-0.21-0.01-0.42-0.03-0.63-0.04        c-0.21-0.01-0.42-0.02-0.63-0.03c-0.21-0.01-0.42-0.02-0.62-0.03c-0.21-0.01-0.42-0.01-0.63-0.02l-0.06,0        c-0.19,0-0.38-0.01-0.56-0.01C244.44,340.63,244.37,340.62,244.31,340.62z"></path><path fill="#9bd" d="M240,461.6l-3.15-0.6c0.02-0.13,2.47-12.81,6.01-26.07c2.09-7.82,4.15-14.31,6.13-19.3        c0.1-0.25,0.2-0.5,0.3-0.74c-3.58-0.27-7.97-1.09-13.34-2.74c-1.39-0.43-2.69-0.87-3.89-1.32c0.08,2.21-0.02,4.62-0.31,7.22        c-3.75,34.08-5.16,40.8-5.22,41.07l-3.13-0.67c0.01-0.06,1.45-7,5.16-40.75c0.35-3.18,0.38-5.92,0.19-8.23        c-8.22-3.75-10.66-7.91-9.94-10.93c0.51-2.11,2.6-3.35,4.98-2.93c2.6,0.45,4.94,2.64,6.41,6.01c0.72,1.64,1.23,3.53,1.54,5.64        c1.5,0.62,3.21,1.23,5.14,1.82c5.57,1.71,10.13,2.51,13.76,2.67c2-4.29,3.92-7,5.83-8.25c3.22-2.1,5.89-1.39,7.31-0.04        c1.7,1.62,1.94,4.23,0.61,6.51c-0.84,1.44-3.67,4.8-11.68,5c-1.89,4.45-4.16,11.03-6.76,20.77        C242.44,448.9,240.02,461.47,240,461.6z M260.47,405.39c-0.64,0-1.43,0.27-2.24,0.8c-0.89,0.58-2.23,2.02-3.99,5.5        c4.06-0.36,6.45-1.71,7.4-3.34c0.65-1.11,0.44-2.09-0.06-2.57C261.3,405.52,260.92,405.39,260.47,405.39z M222.89,398.73        c-0.43,0-0.85,0.14-0.95,0.56c-0.26,1.1,1.19,3.61,6.22,6.3c-1.07-4.43-3.15-6.52-4.9-6.82        C223.14,398.74,223.02,398.73,222.89,398.73z"></path><rect width="3.2" height="44.42" x="228.45" y="443.75" fill="#9bd" transform="rotate(-72.097 230.038 465.945)"></rect><rect width="3.2" height="44.42" x="227.6" y="448.21" fill="#9bd" transform="rotate(-72.097 229.188 470.404)"></rect><rect width="3.2" height="44.42" x="226.75" y="452.67" fill="#9bd" transform="rotate(-72.097 228.34 474.863)"></rect><rect width="3.2" height="42.33" x="224.91" y="457.85" fill="#9bd" transform="rotate(-72.097 226.496 479)"></rect><rect width="3.2" height="16.99" x="311.7" y="396.4" fill="#9bd" transform="rotate(-79.223 313.265 404.872)"></rect><rect width="16.99" height="3.2" x="302.13" y="366.97" fill="#9bd" transform="rotate(-19.219 310.58 368.532)"></rect><rect width="16.99" height="3.2" x="281.65" y="336.86" fill="#9bd" transform="rotate(-49.217 290.152 338.455)"></rect><rect width="16.99" height="3.2" x="248.85" y="321.02" fill="#9bd" transform="rotate(-79.216 257.348 322.628)"></rect><rect width="3.2" height="16.99" x="219.42" y="316.8" fill="#9bd" transform="rotate(-19.219 221.016 325.283)"></rect><rect width="3.2" height="16.99" x="189.31" y="337.28" fill="#9bd" transform="rotate(-49.217 190.924 345.781)"></rect><rect width="3.2" height="16.99" x="173.47" y="370.08" fill="#9bd" transform="rotate(-79.216 175.09 378.593)"></rect><path fill="#9bd" d="M612.65 442.12l-53.82-10.62-25.93-90.41 76.5 9.65L612.65 442.12zM561.37 428.74l47.94 9.46-3.01-84.62-68.98-8.7L561.37 428.74zM619.2 441.86l-3.99-91.35 75.5-15.67-18.7 92.18L619.2 441.86zM618.52 353.09l3.7 84.6 47.04-13.22 17.34-85.5L618.52 353.09z"></path><path fill="#9bd" d="M609.81,441.81l-3.61-91.19l12.21-0.48l3.61,91.19L609.81,441.81z M609.52,353.69l3.36,84.79l5.81-0.23      l-3.36-84.79L609.52,353.69z"></path><path fill="#9bd" d="M610.76,352.04l-0.26-6.67l0.69-0.5c0.23-0.17,5.76-4.14,16.46-7.82c9.8-3.37,26.02-7.11,47.59-5.79      l0.44,0.03l6.77,4.56l-1.79,2.66l-6.04-4.07c-20.75-1.21-36.33,2.37-45.77,5.6c-8.2,2.8-13.31,5.83-15.07,6.97l0.19,4.92      L610.76,352.04z"></path><path fill="#9bd" d="M610.76,352.04l-0.19-4.92c-1.85-0.99-7.18-3.61-15.58-5.75c-9.67-2.47-25.48-4.8-46.07-1.96l-5.7,4.54      l-1.99-2.51l6.39-5.08l0.43-0.06c21.4-3.02,37.86-0.58,47.9,2.01c10.96,2.82,16.78,6.34,17.02,6.49l0.73,0.45l0.26,6.67      L610.76,352.04z"></path><path fill="#9bd" d="M613.67,346.6l-3.08-0.86c0.17-0.63,4.57-15.37,33.86-18.66c27.55-3.1,35.45-8.19,35.52-8.24l4.65-3.1      l-2.29,5.08l-5.73,12.7l-2.92-1.32l3.95-8.75c-4.9,1.9-14.76,4.77-32.82,6.8c-14.15,1.59-21.88,5.98-25.87,9.38      C614.68,343.27,613.68,346.57,613.67,346.6z"></path><rect width="9.14" height="3.2" x="608.11" y="359.92" fill="#9bd" transform="rotate(-2.292 611.826 361.365)"></rect><rect width="9.14" height="3.2" x="608.4" y="367.39" fill="#9bd" transform="rotate(-2.292 612.117 368.828)"></rect><rect width="9.14" height="3.2" x="610.68" y="427.42" fill="#9bd" transform="rotate(-1.868 614.877 428.773)"></rect><rect width="9.14" height="3.2" x="610.43" y="419.95" fill="#9bd" transform="rotate(-1.862 615.615 421.954)"></rect><path fill="#9bd" d="M615.64 348.5c.94-.71 1.95-1.32 2.97-1.9 1.02-.58 2.07-1.11 3.14-1.61 2.13-1 4.32-1.86 6.54-2.62l1.68-.54c.56-.18 1.13-.33 1.69-.49 1.13-.32 2.27-.61 3.41-.87 1.14-.28 2.3-.47 3.45-.7 1.16-.19 2.32-.35 3.49-.48-1.11.39-2.24.7-3.35 1.05l-1.67.52c-.56.17-1.12.33-1.67.51-.55.18-1.11.35-1.67.52-.56.16-1.11.36-1.66.53-1.11.35-2.21.72-3.31 1.09-2.2.75-4.39 1.52-6.56 2.34C619.94 346.68 617.78 347.53 615.64 348.5zM635.27 344.26c2.87-1.4 5.9-2.47 8.95-3.41 3.06-.93 6.17-1.71 9.3-2.34.78-.16 1.57-.29 2.36-.44l1.18-.21 1.19-.18 2.37-.34c.79-.1 1.59-.19 2.38-.27 1.59-.2 3.18-.27 4.78-.39.4-.03.8-.05 1.2-.05l1.2-.03c.8-.02 1.6-.03 2.39-.03-1.58.27-3.16.46-4.73.71l-2.36.36c-.39.06-.79.11-1.18.18l-1.18.2c-.78.13-1.57.26-2.35.38l-2.34.42-1.17.2-1.17.23c-.78.15-1.56.29-2.34.45-3.11.63-6.21 1.31-9.29 2.07C641.39 342.51 638.32 343.32 635.27 344.26zM611.17 347.92c-2.45-.58-4.86-1.21-7.28-1.85l-7.24-1.93-7.24-1.9-7.28-1.84c2.51.13 5.01.47 7.48.92 2.47.46 4.92 1.01 7.34 1.66 2.42.65 4.82 1.38 7.2 2.19C606.54 345.98 608.89 346.87 611.17 347.92zM598.07 347.62c-3.47-.55-6.93-1.15-10.38-1.75l-5.18-.9-2.59-.46-2.59-.44c-1.73-.3-3.45-.6-5.18-.88-.86-.14-1.72-.3-2.59-.43-.87-.13-1.73-.27-2.59-.42-3.46-.54-6.92-1.05-10.41-1.52 3.52-.02 7.03.23 10.53.6 1.75.19 3.49.41 5.23.66.87.12 1.74.25 2.61.4l2.6.42c1.73.32 3.46.62 5.18.97.86.17 1.72.35 2.58.54.86.18 1.72.37 2.57.57C591.29 345.73 594.7 346.59 598.07 347.62z"></path><g><path fill="#9bd" d="M801.45,388.1c-1.34-7.52-5.53-14.07-11.8-18.44c-6.27-4.37-13.86-6.03-21.38-4.69l-0.56-3.15       c8.36-1.49,16.81,0.36,23.77,5.22c6.97,4.86,11.63,12.14,13.12,20.5L801.45,388.1z"></path><path fill="#9bd" d="M791.83 390.71c-.92-5.14-3.78-9.61-8.06-12.6-4.28-2.98-9.47-4.12-14.61-3.21l-.56-3.15c5.98-1.07 12.02.26 17 3.73 4.98 3.47 8.32 8.68 9.38 14.66L791.83 390.71zM782.2 393.31c-.49-2.76-2.03-5.15-4.32-6.75-2.3-1.6-5.08-2.21-7.83-1.72l-.56-3.15c3.6-.64 7.23.15 10.23 2.24 3 2.09 5 5.22 5.64 8.82L782.2 393.31zM776.36 395.7c-1.26 1.8-3.73 2.24-5.54.99-1.8-1.26-2.24-3.73-.99-5.54 1.26-1.8 3.73-2.24 5.54-.99C777.17 391.42 777.61 393.89 776.36 395.7z"></path></g><g><path fill="#9bd" d="M197.17,740.08c-0.51-0.45-12.56-11.32-22.91-29.74c-6.09-10.83-10.29-22.02-12.5-33.24      c-2.76-14.06-2.38-28.21,1.14-42.07l0.4-1.58l1.57,0.43c0.7,0.19,17.34,4.89,33.37,20.23c9.41,9.01,16.61,19.83,21.41,32.16      c5.98,15.36,8.21,33.11,6.62,52.75l-3.19-0.26c3.48-43.22-12.73-68.58-26.94-82.23c-12.66-12.17-26.04-17.5-30.54-19.05      c-6.95,29.6,2.3,54.99,11.4,71.21c10.09,17.98,22.19,28.91,22.31,29.02L197.17,740.08z"></path><path fill="#9bd" d="M208.93,739.29c-0.14-0.55-14.4-55.11-37.47-88.26l2.63-1.83c12.24,17.59,21.9,40.94,27.86,57.43      c6.44,17.84,10.05,31.72,10.08,31.86L208.93,739.29z"></path><rect width="18.93" height="3.2" x="201.62" y="717.24" fill="#9bd" transform="rotate(-65.752 211.094 718.832)"></rect><rect width="3.2" height="20.4" x="191.65" y="697.94" fill="#9bd" transform="rotate(-63.55 193.244 708.147)"></rect><rect width="18.78" height="3.2" x="189.99" y="685.92" fill="#9bd" transform="rotate(-71.349 199.388 687.512)"></rect><rect width="3.2" height="18.44" x="179.17" y="664.81" fill="#9bd" transform="rotate(-60.132 180.756 674)"></rect><rect width="14.45" height="3.2" x="179.21" y="660.73" fill="#9bd" transform="rotate(-71.264 186.453 662.346)"></rect><rect width="54.87" height="3.2" x="245.98" y="721.91" fill="#9bd" transform="rotate(-34.086 273.343 723.464)"></rect><path fill="#9bd" d="M252.1,739.64l-2.82-1.51c0.09-0.16,8.63-16.25,14.66-40.85c5.45-22.24,9.87-56.12,0.44-92.16      c-3.36,2.11-11.09,7.4-19.58,16.12c-10.4,10.68-24.1,28.87-30.33,54.82l-3.11-0.75c2.83-11.8,7.39-23.03,13.55-33.39      c4.92-8.28,10.88-16.03,17.69-23.01c11.62-11.91,21.59-17.44,22.01-17.67l1.77-0.97l0.54,1.95c4.56,16.57,6.63,34.1,6.13,52.12      c-0.4,14.4-2.43,29.13-6.02,43.8C260.89,723.11,252.19,739.48,252.1,739.64z"></path><path fill="#9bd" d="M228.69,738.98l-3.2-0.19c0.01-0.15,0.94-15.55,5.16-38.01c3.89-20.72,11.45-51.89,25.38-82.72l2.92,1.32      c-13.79,30.52-21.29,61.4-25.14,81.94C229.62,723.59,228.7,738.83,228.69,738.98z"></path><rect width="15.06" height="3.2" x="246.89" y="633.81" fill="#9bd" transform="rotate(-40.575 254.444 635.458)"></rect><rect width="3.2" height="17.27" x="242.19" y="632.97" fill="#9bd" transform="rotate(-10.003 243.836 641.535)"></rect><rect width="19.45" height="3.2" x="239.27" y="659.38" fill="#9bd" transform="rotate(-29.179 248.943 660.956)"></rect><rect width="3.2" height="23.36" x="232.8" y="653.04" fill="#9bd" transform="rotate(-16.739 234.354 664.635)"></rect><rect width="22.87" height="3.2" x="232.79" y="685.26" fill="#9bd" transform="rotate(-26.887 244.197 686.867)"></rect><rect width="3.2" height="24.77" x="225.58" y="677.77" fill="#9bd" transform="rotate(-23.595 227.238 690.192)"></rect><rect width="22.48" height="3.2" x="227.78" y="713.79" fill="#9bd" transform="rotate(-27.485 239.01 715.384)"></rect><rect width="3.2" height="7.58" x="225" y="720.23" fill="#9bd" transform="rotate(-24.66 226.586 724.053)"></rect><path fill="#9bd" d="M275.83,740.36l-1.26-2.95c19.03-8.11,28.43-19.37,32.97-27.39c3.48-6.15,4.71-11.38,5.14-13.94      c-17.6,0.04-30.38,5.37-38.08,9.91c-8.64,5.1-12.97,10.35-13.01,10.4l-2.49-2.02c0.19-0.23,4.64-5.67,13.73-11.06      c8.34-4.95,22.35-10.77,41.69-10.43l1.66,0.03l-0.09,1.65c-0.02,0.3-0.45,7.55-5.67,16.85      C305.66,719.93,295.78,731.85,275.83,740.36z"></path><rect width="14.73" height="3.2" x="279.52" y="708.54" fill="#9bd" transform="rotate(-62.71 286.872 710.13)"></rect><rect width="15.38" height="3.2" x="274.89" y="720.45" fill="#9bd" transform="rotate(-3.388 282.415 721.664)"></rect><rect width="13.95" height="3.2" x="261.71" y="720.3" fill="#9bd" transform="rotate(-68.937 268.69 721.892)"></rect><rect width="3.2" height="11.4" x="264.06" y="728.2" fill="#9bd" transform="rotate(-75.7 265.68 733.919)"></rect></g><g><rect width="20.46" height="3.2" x="769.3" y="706.59" fill="#9bd" transform="rotate(-46.812 779.592 708.22)"></rect><rect width="3.2" height="21.26" x="762.9" y="713.89" fill="#9bd" transform="rotate(-43.217 764.447 724.477)"></rect><rect width="12.97" height="3.2" x="772.92" y="734.89" fill="#9bd" transform="rotate(-40.714 779.396 736.48)"></rect><rect width="3.2" height="16.97" x="722.94" y="697.66" fill="#9bd" transform="rotate(-76.049 724.504 706.143)"></rect><rect width="18" height="3.2" x="730.16" y="708.06" fill="#9bd" transform="rotate(-82.375 739.159 709.628)"></rect><rect width="3.2" height="14.65" x="733.87" y="719.35" fill="#9bd" transform="rotate(-72.884 735.461 726.684)"></rect><rect width="9.65" height="3.2" x="742.06" y="730.28" fill="#9bd" transform="rotate(-73.053 746.849 731.858)"></rect><rect width="18.71" height="3.2" x="804.47" y="699.95" fill="#9bd" transform="rotate(-15.783 813.707 701.467)"></rect><path fill="#9bd" d="M749.35,741.17c-0.2-0.7-4.92-17.43-4.03-41.98c0.52-14.41,2.89-28.5,7.04-41.88       c5.19-16.73,13.19-32.39,23.78-46.53l1.28-1.71l1.28,1.71c0.34,0.45,8.34,11.3,13.85,32.88c3.22,12.62,4.91,26.32,5.01,40.7       c0.13,17.95-2.22,37.04-6.98,56.74l-3.11-0.75c10.63-44.01,6.94-76.44,1.97-95.9c-4.09-16.04-9.66-26.05-12.09-29.93       c-22.34,30.78-28.03,62.93-28.84,84.66c-0.89,24.07,3.85,40.94,3.9,41.1L749.35,741.17z"></path><rect width="96.5" height="3.2" x="725.33" y="690.93" fill="#9bd" transform="rotate(-87.398 773.59 692.505)"></rect><rect width="3.2" height="16.11" x="768.13" y="657.98" fill="#9bd" transform="rotate(-36.254 769.7 665.988)"></rect><rect width="18.76" height="3.2" x="771.13" y="675.91" fill="#9bd" transform="rotate(-50.051 780.475 677.52)"></rect><rect width="3.2" height="19.35" x="764.77" y="687.92" fill="#9bd" transform="rotate(-43.513 766.372 697.603)"></rect><path fill="#9bd" d="M735.22,741.99c-0.38-0.3-9.36-7.4-17.9-20.17c-5.02-7.5-8.83-15.41-11.33-23.49       c-3.13-10.13-4.18-20.56-3.15-31.01l0.17-1.72l1.71,0.31c0.28,0.05,6.96,1.29,15.71,5.7c8.06,4.07,19.44,11.74,27.91,25.13       l-2.71,1.71c-8.05-12.74-18.88-20.05-26.54-23.93c-5.81-2.95-10.73-4.43-13.21-5.07c-1.64,21.83,6.67,39.45,14.04,50.5       c8.26,12.37,17.18,19.45,17.27,19.52L735.22,741.99z"></path><path fill="#9bd" d="M745.47,741.23c-0.13-0.38-12.84-38.23-32.26-58.53l2.31-2.21c10.43,10.9,18.85,26.57,24.07,37.8       c5.64,12.13,8.88,21.84,8.92,21.94L745.47,741.23z"></path><rect width="3.2" height="11.65" x="714.7" y="682.92" fill="#9bd" transform="rotate(-71.675 716.262 688.73)"></rect><rect width="3.2" height="14.04" x="724.47" y="683.57" fill="#9bd" transform="rotate(-4.405 725.668 690.243)"></rect><path fill="#9bd" d="M808.06,742.12l-1.59-2.78c0.08-0.05,8.43-4.96,16.27-18.64c7.14-12.45,15.29-34.87,13.97-71.3       c-2.73,0.76-8.24,2.62-14.41,6.48c-8.02,5.02-18.84,14.57-24.83,31.57l-3.02-1.06c6.32-17.93,17.78-28,26.27-33.29       c9.22-5.74,16.89-7.22,17.21-7.28l1.81-0.34l0.08,1.84c0.76,16.98-0.41,32.51-3.48,46.16c-2.47,10.96-6.16,20.75-10.98,29.08       C817.11,736.86,808.43,741.91,808.06,742.12z"></path><path fill="#9bd" d="M797.56,740.91l-3.18-0.37c0.01-0.13,1.51-12.69,6.26-28.67c4.39-14.78,12.54-35.62,26.46-50.97l2.37,2.15       c-13.5,14.88-21.45,35.22-25.74,49.67C799.05,728.45,797.58,740.79,797.56,740.91z"></path><rect width="12.72" height="3.2" x="810.73" y="669.55" fill="#9bd" transform="rotate(-88.797 817.07 671.138)"></rect><rect width="16.07" height="3.2" x="812.61" y="680.61" fill="#9bd" transform="rotate(-18.016 820.736 682.26)"></rect><rect width="3.2" height="16.16" x="805.49" y="679.68" fill="#9bd" transform="rotate(-6.085 807.025 687.709)"></rect><rect width="3.2" height="15.55" x="798.05" y="697.17" fill="#9bd" transform="rotate(-19.044 799.753 705)"></rect><rect width="20.66" height="3.2" x="799.14" y="717.24" fill="#9bd" transform="rotate(-17.98 809.562 718.888)"></rect><rect width="3.2" height="9.54" x="793.4" y="723" fill="#9bd" transform="rotate(-30.424 794.984 727.76)"></rect></g><path fill="#576c89" d="M827.13,750.09H191.45l0,0c0-7.15,5.8-12.94,12.94-12.94h609.79C821.34,737.15,827.13,742.94,827.13,750.09    L827.13,750.09z"></path><g><path fill="#466eb6" d="M750,393.32h-13.27c19.07,0,34.54,15.47,34.54,34.56v233.16c0,19.07-15.47,34.56-34.54,34.56H750     c19.07,0,34.54-15.48,34.54-34.56V427.88C784.54,408.79,769.07,393.32,750,393.32z"></path><path fill="#86b1f2" d="M469.37,721.49c-4.67,0-8.47,3.81-8.47,8.47c0,2.32,0.94,4.44,2.47,5.97s3.66,2.49,5.99,2.49h164.55     c4.67,0,8.47-3.81,8.47-8.47c0-2.32-0.96-4.44-2.49-5.97c-1.53-1.53-3.64-2.49-5.97-2.49h-4.41h-11.27h-88.31H469.37z"></path><path fill="#466eb6" d="M647.86,721.49h-13.93c2.33,0,4.44,0.96,5.97,2.49c1.53,1.53,2.49,3.66,2.49,5.97c0,4.65-3.8,8.47-8.47,8.47     h13.93c2.33,0,4.44-0.96,5.97-2.49s2.49-3.66,2.49-5.97C656.32,725.31,652.53,721.49,647.86,721.49z"></path><polygon fill="#355389" points="604.71 695.59 618.25 721.49 629.52 721.49 615.97 695.59"></polygon><polygon fill="#466eb6" points="516.4 695.59 529.94 721.49 618.25 721.49 604.71 695.59"></polygon><path fill="#86b1f2" d="M362.46,393.32h374.26c19.07,0,34.54,15.47,34.54,34.56v233.16c0,19.07-15.47,34.56-34.54,34.56H615.97     h-11.25H516.4H362.46c-19.07,0-34.54-15.48-34.54-34.56V427.88C327.92,408.79,343.39,393.32,362.46,393.32z M362.48,656.11     h374.24c13.29,0,24.09-10.82,24.09-24.11V427.88c0-13.29-10.8-24.11-24.09-24.11H362.48c-13.29,0-24.11,10.82-24.11,24.11V632     C338.37,645.29,349.19,656.11,362.48,656.11z"></path><path fill="#efefef" d="M760.81,427.87v204.12c0,9.63-5.66,17.96-13.85,21.81c-3.12,1.48-6.58,2.3-10.24,2.3H362.48     c-13.29,0-24.11-10.82-24.11-24.11V427.87c0-11.96,8.77-21.93,20.22-23.79c1.27-0.21,2.57-0.32,3.89-0.32h374.24     c1.32,0,2.63,0.11,3.89,0.32C752.05,405.95,760.81,415.91,760.81,427.87z"></path><defs><path id="a" d="M760.81,427.87V632c0,9.63-5.66,17.96-13.85,21.81c-3.12,1.48-6.58,2.3-10.24,2.3H362.48       c-13.29,0-24.11-10.82-24.11-24.11V427.87c0-13.29,10.82-24.11,24.11-24.11h374.24C750.01,403.77,760.81,414.58,760.81,427.87z       "></path></defs><clipPath id="b"><use overflow="visible" xlink:href="#a"></use></clipPath><g clip-path="url(#b)"><path fill="#fae0b2" d="M552.54 469.08c0 53.01 0 106.03 0 159.04H438.46V472.39v-3.32H552.54zM649.1 447.02c0 51.53 0 103.06 0 154.59-33.51-3.22-61.71-19.18-95.06 24.52-.5.64-.99 1.32-1.5 1.99 0-53.01 0-106.03 0-159.04 34.01-46.17 62.55-29.77 96.56-26.51C649.1 444.05 649.1 445.54 649.1 447.02z"></path><path fill="#e5bd83" d="M655.35,609.65v14.21c0,0-9.56-6.16-43.65-9c-34.08-2.84-54.9,20.36-54.9,20.36        c-6.27,5.45-12.31,0-12.31,0H443.67l-5.21-7.1h114.08c0.5-0.69,1.01-1.34,1.5-1.99C587.57,582.67,621.84,606.44,655.35,609.65        z"></path><path fill="#f7cc7f" d="M554.04,626.13c33.35-43.7,61.56-27.74,95.06-24.52c0-51.53,0-103.06,0-154.59h6.25        c0,8.37,0,16.85,0,25.37c0,45.44,0,92.63,0,137.26C621.84,606.44,587.57,582.67,554.04,626.13z"></path><path fill="#3c8f7c" d="M676.2,622.8V467.07l-20.85,5.32c0,45.44,0,92.63,0,137.26v14.21c0,0-9.56-6.16-43.65-9        c-34.08-2.84-54.9,20.36-54.9,20.36c-6.27,5.45-12.31,0-12.31,0H443.67l-5.21-7.1V472.39H427.1v172.29h115.02        c0,0,8.99,11.36,20.36,0L676.2,622.8z"></path><path fill="#b28856" d="M563.66 623.65c2.36-2.9 5.24-5.35 8.31-7.5 3.07-2.17 6.41-3.95 9.91-5.35 3.5-1.37 7.14-2.46 10.87-2.94 1.85-.33 3.73-.41 5.6-.52.93-.07 1.87.01 2.81.04.93.03 1.87.08 2.79.15-3.72.3-7.41.56-11.01 1.39-3.61.72-7.13 1.81-10.53 3.18-3.43 1.32-6.7 3.03-9.84 4.94-1.58.95-3.1 2-4.59 3.1C566.47 621.22 565.04 622.4 563.66 623.65zM655.35 620.13c-1.65-.82-3.34-1.53-5.07-2.13-1.71-.65-3.45-1.2-5.2-1.71-3.51-1-7.07-1.84-10.65-2.53-3.58-.75-7.2-1.23-10.83-1.77-3.63-.49-7.28-.84-10.95-1.27 1.84-.07 3.68-.06 5.53-.08 1.84.09 3.69.15 5.53.28 3.68.29 7.36.74 10.98 1.47 3.62.74 7.23 1.62 10.71 2.89C648.87 616.54 652.33 617.99 655.35 620.13zM552.53 633.44c.9-2.63 2.33-5.07 3.96-7.32 1.63-2.27 3.52-4.34 5.53-6.27 2.07-1.87 4.23-3.65 6.57-5.16 1.13-.8 2.38-1.45 3.57-2.16 1.24-.63 2.48-1.25 3.74-1.81-2.26 1.61-4.51 3.18-6.67 4.86-1.07.85-2.16 1.67-3.18 2.58-1.07.85-2.05 1.8-3.06 2.71-1.98 1.87-3.87 3.84-5.63 5.92C555.62 628.89 553.92 631.05 552.53 633.44z"></path><path fill="#171c51" d="M455.21,495.36h4.77l5.49,15.89h0.95v2h-8.04v-2h1.52l-0.77-2.39h-6.07l-0.8,2.39h1.53v2h-5.17v-2          h1.15L455.21,495.36z M456.15,499.89l-2.27,6.62h4.47L456.15,499.89z"></path><rect width="63.54" height="2.13" x="481.65" y="495.41" fill="#171c51"></rect><rect width="71.06" height="2.13" x="474.14" y="503.04" fill="#171c51"></rect><rect width="71.06" height="2.13" x="474.14" y="510.67" fill="#171c51"></rect><rect width="86.35" height="2.13" x="458.85" y="527.54" fill="#171c51"></rect><rect width="96.56" height="2.13" x="448.64" y="535.17" fill="#171c51"></rect><rect width="96.56" height="2.13" x="448.64" y="542.81" fill="#171c51"></rect><rect width="86.35" height="2.13" x="458.85" y="555.96" fill="#171c51"></rect><rect width="96.56" height="2.13" x="448.64" y="563.6" fill="#171c51"></rect><rect width="96.56" height="2.13" x="448.64" y="571.23" fill="#171c51"></rect><rect width="86.35" height="2.13" x="458.85" y="584.39" fill="#171c51"></rect><rect width="96.56" height="2.13" x="448.64" y="592.02" fill="#171c51"></rect><rect width="96.56" height="2.13" x="448.64" y="599.65" fill="#171c51"></rect><g><path fill="#171c51" d="M558.63 503.32c0-.67 0-1.33 0-2 .38-.44.76-.87 1.15-1.29 0-4.62 0-9.24 0-13.86-.39.42-.77.85-1.15 1.29 0-.68 0-1.35 0-2.03 2.64-3.05 5.39-5.6 8.22-7.64 1.83-1.32 3.23-1.81 4.18-1.69.95.12 1.43.84 1.43 2.08 0 .96-.32 1.87-.94 2.78-.62.91-1.53 1.77-2.69 2.66 1.44-.74 2.59-.81 3.44-.32.85.49 1.28 1.47 1.28 2.86 0 1.73-.58 3.34-1.71 4.93-1.13 1.6-2.67 2.96-4.58 4.3C564.28 497.48 561.4 500.13 558.63 503.32zM564.71 485.67c.24-.19.47-.39.71-.58.68-.54 1.21-1.1 1.58-1.73.37-.62.56-1.25.56-1.89 0-.66-.19-1.03-.56-1.1-.38-.07-.93.17-1.66.74-.21.17-.43.35-.64.52C564.71 482.99 564.71 484.33 564.71 485.67zM564.71 487.85c0 1.81 0 3.63 0 5.44 0 .66.11 1.05.34 1.17.23.12.59-.02 1.09-.39.7-.53 1.25-1.25 1.65-2.18.4-.93.6-1.99.6-3.19 0-1.15-.26-1.87-.78-2.13-.52-.25-1.26-.03-2.21.72C565.17 487.48 564.94 487.67 564.71 487.85zM642.11 473.08c-16.41.83-37.12-5.86-56.46.12 0-.71 0-1.42 0-2.13 19.35-5.98 40.06.71 56.46-.12C642.11 471.66 642.11 472.37 642.11 473.08zM642.11 480.72c-18.35.48-42.07-9.15-63.26 1.16 0-.71 0-1.42 0-2.13 21.19-10.31 44.91-.67 63.26-1.16C642.11 479.3 642.11 480.01 642.11 480.72zM642.11 488.35c-18.35.48-42.07-9.15-63.26 1.16 0-.71 0-1.42 0-2.13 21.19-10.31 44.91-.68 63.26-1.16C642.11 486.93 642.11 487.64 642.11 488.35zM642.11 505.22c-22.3-.33-52.53-16.53-76.51 7.81 0-.71 0-1.42 0-2.13 23.97-24.34 54.21-8.14 76.51-7.81C642.11 503.79 642.11 504.51 642.11 505.22z"></path><path fill="#171c51" d="M642.11,512.85c-24.93-1.19-59.79-21.49-84.73,16c0-0.71,0-1.42,0-2.13        c24.93-37.49,59.79-17.18,84.73-16C642.11,511.43,642.11,512.14,642.11,512.85z"></path><path fill="#171c51" d="M642.11,520.48c-24.93-1.19-59.79-21.49-84.73,16c0-0.71,0-1.42,0-2.13        c24.93-37.49,59.79-17.18,84.73-16C642.11,519.06,642.11,519.77,642.11,520.48z"></path><path fill="#171c51" d="M642.11,533.64c-22.3-0.33-52.53-16.53-76.51,7.81c0-0.71,0-1.42,0-2.13        c23.97-24.34,54.21-8.14,76.51-7.81C642.11,532.22,642.11,532.93,642.11,533.64z"></path><path fill="#171c51" d="M642.11,541.27c-24.93-1.19-59.79-21.49-84.73,16c0-0.71,0-1.42,0-2.13        c24.93-37.49,59.79-17.18,84.73-16C642.11,539.85,642.11,540.56,642.11,541.27z"></path><path fill="#171c51" d="M642.11,548.9c-24.93-1.19-59.79-21.49-84.73,16c0-0.71,0-1.42,0-2.13c24.93-37.49,59.79-17.18,84.73-16        C642.11,547.48,642.11,548.19,642.11,548.9z"></path><path fill="#171c51" d="M642.11,562.06c-22.3-0.33-52.53-16.53-76.51,7.81c0-0.71,0-1.42,0-2.13        c23.97-24.34,54.21-8.14,76.51-7.81C642.11,560.65,642.11,561.35,642.11,562.06z"></path><path fill="#171c51" d="M642.11,569.7c-24.93-1.19-59.79-21.5-84.73,16c0-0.71,0-1.42,0-2.13c24.93-37.49,59.79-17.18,84.73-16        C642.11,568.28,642.11,568.99,642.11,569.7z"></path><path fill="#171c51" d="M642.11,577.33c-24.93-1.19-59.79-21.5-84.73,16c0-0.71,0-1.42,0-2.13c24.93-37.49,59.79-17.18,84.73-16        C642.11,575.91,642.11,576.62,642.11,577.33z"></path></g><path fill="#f7cc7f" d="M552.54,469.08c0.87,13.09,1.32,26.18,1.63,39.26c0.19,6.54,0.24,13.09,0.35,19.63l0.12,19.63       l-0.11,19.63c-0.12,6.54-0.15,13.09-0.35,19.63c-0.31,13.09-0.76,26.18-1.64,39.26c-0.87-13.09-1.33-26.18-1.64-39.26       c-0.2-6.54-0.23-13.09-0.35-19.63l-0.11-19.63l0.12-19.63c0.11-6.54,0.16-13.09,0.35-19.63       C551.21,495.25,551.67,482.16,552.54,469.08z"></path></g><path fill="#466eb6" d="M760.81,427.87v4.83H338.37v-4.83c0-13.18,10.9-24.11,23.21-24.11h375.96     C748.77,403.77,760.81,413.54,760.81,427.87z"></path><path fill="#171c51" d="M368.39 418.39c0 3.03-2.46 5.49-5.49 5.49-3.03 0-5.49-2.46-5.49-5.49 0-3.03 2.46-5.49 5.49-5.49C365.94 412.9 368.39 415.36 368.39 418.39zM396.76 418.39c0 3.03-2.46 5.49-5.49 5.49-3.03 0-5.49-2.46-5.49-5.49 0-3.03 2.46-5.49 5.49-5.49C394.3 412.9 396.76 415.36 396.76 418.39z"></path><circle cx="418.18" cy="418.39" r="5.49" fill="#171c51"></circle><polygon fill="#fff" points="517.08 656.1 445.02 656.1 363.75 403.77 435.81 403.77"></polygon><polygon fill="#fff" points="558.08 656.1 536.57 656.1 455.3 403.77 476.79 403.77"></polygon><polygon fill="#fff" points="728.22 656.1 656.16 656.1 574.89 403.77 646.95 403.77"></polygon><path fill="#fff" d="M760.81,630.03V632c0,9.63-5.66,17.96-13.85,21.81l-80.52-250.04h21.49L760.81,630.03z"></path><g><path fill="#fae0b2" d="M701.75,719.65c0,0,2.46,8.01-0.1,17.85l-8.55-0.71l-24.31-1.86v-0.01c0,0,0.74-3.88,0.74-8.43       c0-4.18-0.74-8.44-0.74-8.44l23.95,1.14L701.75,719.65z"></path><path fill="#f79c8d" d="M704.31,715.9c0,0,4.76,11.06,0,25.39l-36.16-2.39c-0.78-0.06-1.39-0.98-1.36-2.07       c0.03-1.08,0.67-1.93,1.43-1.93c0.02,0,0.04,0,0.06,0l0.51,0.04l24.31,1.86l8.55,0.71c2.55-9.84,0.1-17.85,0.1-17.85l-9-0.46       l-23.95-1.14l-0.58-0.03c-0.77-0.04-1.38-0.92-1.38-2c0-1.1,0.64-1.99,1.42-1.99c0.02,0,0.04,0,0.06,0L704.31,715.9z"></path><polygon fill="#f47458" points="812.16 712.43 808.71 712.43 704.31 715.9 668.32 714.03 773.37 711.94"></polygon><path fill="#f47458" d="M812.16,712.43c0,0,5.03,14.84,0.56,25.86h-4.01l-104.4,2.99c4.76-14.32,0-25.39,0-25.39l104.4-3.47       H812.16z"></path><path fill="#e5bd83" d="M702.3 724.74c-3.77.18-7.51.06-11.26-.14-3.74-.22-7.48-.52-11.21-1.11 3.77-.18 7.51-.06 11.26.14C694.84 723.85 698.58 724.14 702.3 724.74zM683.1 730.75c-2.1.19-4.17.08-6.23-.1-2.06-.21-4.11-.49-6.14-1.07 2.1-.19 4.17-.08 6.23.1C679.02 729.89 681.07 730.17 683.1 730.75z"></path><path fill="#f8c558" d="M685.86 733.88c-1.55-2.41-1.27-7.9.53-10.13 3.16.17 6.32.33 9.49.5-1.8 2.23-2.09 7.72-.53 10.13-1.95-.75-3.84-1.7-5.6-2.77C688.35 732.51 687.07 733.29 685.86 733.88zM713.13 741c4.47-11.02-.55-25.39-.55-25.39h9.76c0 0 5.02 14.37.55 25.39H713.13zM795.13 738.77c4.47-11.02-.55-25.39-.55-25.39h9.76c0 0 5.02 14.37.55 25.39H795.13z"></path><path fill="#fae0b2" d="M769.56,694.05c0,0-3.45,8.01,0.13,17.85l13.59-0.74l34.07-1.86v-0.01c0,0-1.03-3.88-1.03-8.43       c0-4.18,1.03-8.44,1.03-8.44v-0.01l-33.58,1.14L769.56,694.05z"></path><path fill="#50bfa5" d="M818.06,709.26l-0.71,0.04l-34.07,1.86l-13.59,0.74c-3.58-9.84-0.13-17.85-0.13-17.85l14.2-0.49       l33.58-1.14l0.81-0.02c1.08-0.04,1.93-0.92,1.93-2c0-1.1-0.9-1.99-1.99-1.99c-0.03,0-0.06,0-0.09,0l-50.44,1.87       c0,0-6.66,11.06,0,25.39l50.68-2.39c1.09-0.06,1.94-0.98,1.91-2.07c-0.04-1.08-0.94-1.93-2.01-1.93       C818.12,709.26,818.09,709.26,818.06,709.26z"></path><polygon fill="#3c8f7c" points="818.01 688.4 679.78 686.65 680.54 686.69 767.57 690.26"></polygon><path fill="#3c8f7c" d="M765.88,690.2l-85.34-3.51c-4.25-0.17-7.8,3.23-7.82,7.49l-0.06,10.63c-0.02,4.07,3.18,7.41,7.24,7.57       l87.67,3.28c-6.66-14.32,0-25.39,0-25.39L765.88,690.2z"></path><path fill="#e5bd83" d="M769.82 700.92c2.63.19 5.26.21 7.88.19 2.62-.02 5.24-.13 7.86-.26 2.62-.16 5.23-.34 7.84-.61 2.61-.26 5.22-.58 7.81-1.06-2.63-.19-5.26-.22-7.88-.19-2.62.02-5.24.13-7.86.26-2.62.16-5.23.34-7.84.61C775.02 700.12 772.41 700.44 769.82 700.92zM797.66 705.11c2.92.19 5.81.08 8.7-.1 2.89-.21 5.77-.49 8.64-1.07-2.92-.19-5.81-.08-8.7.1C803.4 704.25 800.52 704.53 797.66 705.11z"></path><path fill="#f47458" d="M792.98,716.6c2.66-3.92,2.39-13.22-0.49-16.98c-5.23,0.15-10.26,0.8-15.49,0.95      c2.88,3.76,2.96,12.57,0.3,16.49c3.26-1.16,6.41-2.67,9.35-4.36C788.93,714.24,791.01,715.59,792.98,716.6z"></path><g><path fill="#355389" d="M719.07,664.43l2.47,0.22c-6.15,0.44-10.77,5.77-10.33,11.92l0.24,3.41c0.37,5.13,4.15,9.2,8.97,10.14       l-39.71-3.19c-6.62-0.64-11.44-6.56-10.76-13.17l0.19-1.83c0.67-6.52,6.45-11.29,12.98-10.71h0.01L719.07,664.43z"></path><polygon fill="#355389" points="814.68 662.54 721.54 664.66 719.07 664.43 683.13 661.23 683.12 661.23 682.69 661.19"></polygon><path fill="#466eb6" d="M812,666.29l-90.27,2.36c-2.04,0.17-3.88,1.18-5.13,2.83c-1.08,1.44-1.53,3.26-1.39,5.06l0.23,3.14       c0.26,3.66,3.34,6.59,7,6.65c0.21,0,0.42-0.01,0.63-0.02l0.1-0.01l88.95-2.02l2.21-0.05c1.04-0.02,1.89,0.83,1.88,1.87       l-0.01,0.33c-0.02,0.98-0.81,1.78-1.79,1.8l-91.05,2.06c-1.01,0.07-2,0.01-2.95-0.18c-4.82-0.94-8.61-5.01-8.97-10.14       l-0.24-3.41c-0.44-6.15,4.19-11.48,10.33-11.92l93.14-2.12c1.04-0.02,1.89,0.82,1.88,1.87c-0.02,0.98-0.8,1.78-1.78,1.81       L812,666.29z"></path><path fill="#fae0b2" d="M812.13,684.29l-88.95,2.02l-0.1,0.01c-0.21,0.01-0.42,0.03-0.63,0.02c-3.67-0.06-6.74-2.98-7-6.65       l-0.23-3.14c-0.13-1.8,0.31-3.62,1.39-5.06c1.25-1.65,3.09-2.67,5.13-2.83l90.27-2.36c-0.03,0.16-1.18,5.53-1.23,8.98       C810.72,678.7,812.13,684.29,812.13,684.29z"></path><path fill="#e5bd83" d="M723.04 673.87c2.6-.43 5.22-.71 7.83-.93 2.61-.23 5.23-.37 7.85-.49 2.62-.09 5.24-.16 7.86-.14 2.62.01 5.25.08 7.88.31-2.6.44-5.22.71-7.83.93-2.61.23-5.23.37-7.85.49-2.62.09-5.24.16-7.86.13C728.29 674.17 725.67 674.1 723.04 673.87zM744.57 681.19c2.6-.43 5.22-.71 7.83-.93 2.61-.23 5.23-.37 7.85-.49 2.62-.09 5.24-.16 7.86-.14 2.62.01 5.25.08 7.88.31-2.6.44-5.22.71-7.83.93-2.61.23-5.23.37-7.85.49-2.62.09-5.24.16-7.86.13C749.82 681.49 747.2 681.42 744.57 681.19z"></path><path fill="#50bfa5" d="M748.12,694.78c3.62-4.84,3.85-16.83,0.39-21.78c-6.67-0.11-12.61,0.6-19.28,0.49      c3.46,4.96,2.48,16.13-1.13,20.97c4.22-1.3,8.32-3.03,12.17-5.02C743.09,691.54,745.66,693.38,748.12,694.78z"></path><path fill="#e5bd83" d="M767.63,676.51c3.59-0.43,7.18-0.71,10.77-0.93c3.59-0.23,7.18-0.37,10.78-0.49      c3.6-0.09,7.19-0.16,10.79-0.13c3.6,0.01,7.2,0.08,10.8,0.31c-3.59,0.44-7.18,0.71-10.77,0.93c-3.59,0.23-7.19,0.37-10.78,0.48      c-3.6,0.09-7.19,0.16-10.79,0.13C774.84,676.8,771.24,676.73,767.63,676.51z"></path></g><g><path fill="#fae0b2" d="M685.95,586.1h116.92c0,0-2.04,8.46-2.04,17.66c0,8.93,2.04,17.66,2.04,17.66H685.95       c-4.15,0-7.51-3.36-7.51-7.51v-20.29C678.44,589.46,681.8,586.1,685.95,586.1z"></path><path fill="#184655" d="M804.44,581.29c1.33,0,2.4,1.08,2.4,2.4c0,0.66-0.26,1.26-0.7,1.7c-0.43,0.44-1.03,0.7-1.7,0.7h-1.58       H685.95c-4.15,0-7.51,3.36-7.51,7.52v20.29c0,4.15,3.36,7.51,7.51,7.51h116.92h1.58c1.33,0,2.4,1.07,2.4,2.4       c0,0.66-0.26,1.26-0.7,1.7c-0.43,0.43-1.03,0.7-1.7,0.7H685.95c-6.8,0-12.31-5.52-12.31-12.31v-20.3       c0-6.8,5.51-12.31,12.31-12.31H804.44z"></path><path fill="#e5bd83" d="M693.66 592.93c6.92-.31 13.85-.52 20.77-.62 6.92-.13 13.85-.16 20.77-.18 6.92.01 13.85.05 20.77.18 6.92.1 13.85.31 20.77.62-6.92.31-13.85.52-20.77.62-6.92.13-13.85.16-20.77.18-6.92-.02-13.85-.05-20.77-.18C707.51 593.45 700.58 593.24 693.66 592.93zM689.33 603.76c2.62-.33 5.23-.5 7.85-.62 2.62-.13 5.23-.16 7.85-.18 2.62.01 5.23.05 7.85.18 2.62.12 5.23.29 7.85.62-2.62.33-5.23.51-7.85.62-2.62.13-5.23.16-7.85.18-2.62-.02-5.23-.05-7.85-.18C694.56 604.26 691.95 604.09 689.33 603.76zM709.36 614.85c2.62-.33 5.23-.5 7.85-.62 2.62-.13 5.23-.16 7.85-.18 2.62.01 5.23.05 7.85.18 2.62.12 5.23.29 7.85.62-2.62.33-5.23.51-7.85.62-2.62.13-5.23.16-7.85.18-2.62-.02-5.23-.05-7.85-.18C714.59 615.36 711.97 615.18 709.36 614.85zM725.87 608.36c6.05-.31 12.09-.52 18.14-.62 6.05-.13 12.09-.16 18.14-.18 6.05.01 12.09.05 18.14.18 6.05.1 12.09.31 18.14.62-6.05.31-12.09.52-18.14.62-6.05.13-12.09.16-18.14.18-6.05-.02-12.09-.05-18.14-.18C737.96 608.87 731.92 608.67 725.87 608.36z"></path><path fill="#355389" d="M713.69,625.14c-3.54-6.69-3.54-14.69,0-21.38c-6.68,0-13.35,0-20.03,0c-3.54,6.69-3.54,14.69,0,21.38      c2.37-1.82,5.01-3.74,7.91-5.7C705.35,621.4,709.38,623.32,713.69,625.14z"></path></g><g><rect width="7.44" height="35.33" x="776.65" y="626.24" fill="#fe875e"></rect><rect width="12.39" height="35.33" x="784.1" y="626.24" fill="#f7cc7f"></rect><rect width="86" height="35.33" x="690.65" y="626.24" fill="#f7cc7f"></rect><rect width="7.44" height="35.33" x="683.21" y="626.24" fill="#fe875e"></rect><rect width="12.39" height="35.33" x="670.82" y="626.24" fill="#f7cc7f"></rect><path fill="#355389" d="M670.74,636.38c0,0-9.51,4.59-11.04,16.98l4.08-3.4l1.44,3.4c0,0,0.93-10.53,5.52-14.61V636.38z"></path><path fill="#fe875e" d="M767.62,643.91c0,4.41-15.11,7.98-33.74,7.98c-18.63,0-33.74-3.57-33.74-7.98      c0-4.41,15.11-7.98,33.74-7.98C752.51,635.92,767.62,639.5,767.62,643.91z"></path></g></g><g><path fill="#13375b" d="M704.38,454.81c-5.68,2.27-8.72,11.77-9.13,23.95c-0.41,12.18-7.33,28.17,0.26,32.3      c7.6,4.12,20.35-5.74,30.18,2.92c9.84,8.66,24.17,9.46,24.17,9.46s8.94-7.09,5.42-27.35c-3.52-20.26-16.91-13.19-22.9-21.58      C726.4,466.11,723.57,447.13,704.38,454.81z"></path><path fill="#f47458" d="M707.62,493.84c0,0,19.86-4.16,19.23,2.33c-0.27,2.77-8.86,15.19-9.06,16.22       c-0.13,0.75-0.31,1.52-0.46,2.28c-0.16,0.76-0.33,1.52-0.52,2.29c-0.19,0.77-0.37,1.53-0.58,2.31l-0.67,2.33       c-0.11,0.38-0.24,0.78-0.37,1.17l-0.4,1.18l-0.41,1.18l-0.48,1.21l-0.49,1.2c-0.08,0.2-0.16,0.4-0.25,0.6l-0.29,0.62       l-0.59,1.24l-0.3,0.62l-0.15,0.31l-0.25,0.47c-0.36,0.64-0.72,1.28-1.14,1.88c-0.43,0.59-0.87,1.17-1.33,1.72       c-0.48,0.52-0.97,1.02-1.47,1.51c-0.5,0.46-1.02,0.87-1.55,1.28c-2.11,1.56-4.24,2.55-6.25,3.23c-0.5,0.16-1.01,0.34-1.49,0.46       l-1.46,0.36c-0.94,0.19-1.89,0.36-2.8,0.46c-1.82,0.23-3.58,0.31-5.26,0.28c-3.38-0.04-3.8-15.8-1.55-16.37       c1.13-0.28,2.18-0.62,3.12-0.99c0.23-0.1,0.48-0.18,0.68-0.28c0.21-0.1,0.42-0.2,0.63-0.29l0.56-0.31       c0.2-0.09,0.32-0.21,0.48-0.31c0.59-0.41,0.9-1.82,0.9-1.82l0.2-0.72l0.1-0.36c0.03-0.13,0.06-0.27,0.09-0.4l0.18-0.81       l0.19-0.8l0.16-0.86c0.1-0.58,0.22-1.13,0.31-1.74c0.21-1.19,0.62-5.34,1.14-10.82C696.57,499.84,700.84,495.32,707.62,493.84       L707.62,493.84z"></path><path fill="#f8c558" d="M745.22,541.04c0.34-4.43,3.08-13.04,3.31-19.89c0.48-14.25,0.12-28-22.75-28.12         c-0.03-0.01-0.06-0.01-0.09-0.02c-1.52-0.26-2.63-0.37-3.16-0.42c-0.22-0.02-0.34-0.03-0.34-0.03         c-10.68-0.3-18.35,0.81-19.28,8.58c-0.56,4.74-4.47,6.81-5.18,11.91c-0.93,6.63,0.95,7.74,2.65,13.26         c1.35,4.37-10.48,33.93-10.48,33.93l56.82,1.09C746.72,561.34,744.41,551.59,745.22,541.04z"></path><path fill="#587cf8" d="M722.53,492.6c0.53,0.05,1.64,0.16,3.16,0.42C724.66,492.82,723.6,492.68,722.53,492.6z"></path><path fill="#fae0b2" d="M725.2,480.17l-14.74,2.53l1.96,5.58l0.01,0.02l0.54,1.54l0.51,1.48l0.11,0.31l1.77,0.2l-1.17,1.14        c0,0,0.57,2.31,5.22,2.31s6.29-2.27,6.29-2.27L725.2,480.17z"></path><path fill="#fae0b2" d="M725.67,475.66c0.32,6.93-3.49,12.64-10.13,14.63c-5.09,1.52-9.01-0.61-14.95-13.45        c-2.91-6.29,5.03-12.8,11.95-13.13C719.47,463.38,725.35,468.74,725.67,475.66z"></path><path fill="#fe875e" d="M714.69,493.79c0,0-0.33-0.27-0.51-0.82c-0.19-0.6-1.04-2.28-1.04-2.28s7.96-0.94,9.81-6.26        C722.95,484.44,724.37,490.99,714.69,493.79z"></path><path fill="#f47458" d="M736.53,495.49c16.79-0.2,11.53,39.85-0.83,45.18c-15.23,6.56-24.41,4.33-24.41,4.33l-0.12-9.17      c0.09-0.04,18.05-2.88,18.48-8.56C730.6,514.82,721.37,496.55,736.53,495.49L736.53,495.49z"></path><path fill="#d1d1d1" d="M692.85,548.75l22.27-0.01c-0.47,0-0.89,0.16-1.2,0.42c-0.31,0.26-0.5,0.61-0.5,1.01       c0,0.79,0.77,1.43,1.7,1.43l-45.81,0.03c-0.94,0-1.7-0.64-1.7-1.43c0-0.4,0.19-0.75,0.5-1.01c0.31-0.26,0.73-0.42,1.2-0.42       L692.85,548.75z"></path><path fill="#9e9e9e" d="M740.09,548.71c0.79,0,1.43,0.64,1.43,1.43c0,0.4-0.16,0.75-0.42,1.01c-0.26,0.26-0.62,0.42-1.01,0.42       l-25.26,0.02c-0.79,0-1.43-0.64-1.43-1.43c0-0.4,0.16-0.75,0.42-1.01c0.26-0.26,0.62-0.42,1.01-0.42l24.73-0.02L740.09,548.71z       "></path><path fill="#d1d1d1" d="M716.35,547.98c-0.39,0.47-0.96,0.75-1.57,0.75l-1.81,0c0.61,0,1.18-0.28,1.57-0.75       c0.39-0.48,0.53-1.09,0.41-1.69l-6-28.6c-0.2-0.93-1.03-1.61-1.99-1.61l1.81,0c0.95,0,1.79,0.68,1.99,1.61l6,28.6       C716.88,546.89,716.73,547.5,716.35,547.98z"></path><path fill="#f4f4f4" d="M714.54,547.98c-0.39,0.47-0.96,0.75-1.57,0.75l-43.47,0.03c-0.95,0-1.79-0.68-1.99-1.61l-6-28.6       c-0.12-0.6,0.02-1.21,0.41-1.69c0.38-0.47,0.96-0.75,1.57-0.75l43.47-0.03c0.95,0,1.79,0.68,1.99,1.61l6,28.6       C715.07,546.89,714.93,547.5,714.54,547.98z"></path><path fill="#fff" d="M690.59,532.42c0,1.3-1.05,2.36-2.36,2.36c-1.3,0-2.36-1.05-2.36-2.36c0-1.3,1.05-2.36,2.36-2.36       C689.53,530.07,690.59,531.12,690.59,532.42z"></path><path fill="#13375b" d="M725.87,472.71c0,0-15.64,5.2-24.03-3.19c0,0,5.33,6.06,9.02,5.41c0,0-5.23,1.62-9.02-4.33      c0,0-1.05,5.48-3.77,6.59c0,0-2.49-15.25,10.66-17.15C721.87,458.16,725.24,466.69,725.87,472.71z"></path><path fill="#fae0b2" d="M634.56,600.41c0,0-3.86,4.17-5.38,3.33l15.79,10.39l3.37-4.65L634.56,600.41z"></path><path fill="#13375b" d="M623.58,601.79l4.44,1.54c0.93,0.32,1.95,0.28,2.85-0.13l2.12-1.27l4.4,7.11l9.49,2.46l-0.93,1.29       l-4.99-1.41l4.12,2.71c0.69,0.45,0.88,1.38,0.43,2.07l-1.25,1.9c-0.48,0.73-1.47,0.94-2.2,0.45l-4.72-3.1l0-2.51l-3.39,0.28       l-14.84-9.76c-0.29-0.19-0.31-0.61-0.04-0.83l0,0C620.32,601.56,622.04,601.26,623.58,601.79z"></path><path fill="#fae0b2" d="M666.1,626.22c0,0-0.93,5.6-2.67,5.74h18.9l0.25-5.74H666.1z"></path><path fill="#13375b" d="M657.69,633.41l4.55-1.15c0.95-0.24,1.78-0.84,2.31-1.67l1.07-2.23l7.59,3.52l9.28-3.16l-0.07,1.59       l-4.94,1.57h4.93c0.82,0,1.49,0.67,1.49,1.49v2.27c0,0.88-0.71,1.59-1.59,1.59h-5.65l-1.38-2.1l-2.68,2.1h-17.76       c-0.35,0-0.6-0.34-0.49-0.67l0,0C654.84,635,656.11,633.81,657.69,633.41z"></path><path fill="#355389" d="M674,582.88l-9.2,43.33h18.68l15.13-45.79c0,0-5.42-2.47-13.08-5.72      C677.87,571.46,675.95,578.07,674,582.88z"></path><path fill="#466eb6" d="M746.34,571.27L746.34,571.27c-2.23,12.89-8.66,16.04-25.67,14.07c-21.33-2.47-33.16-9.88-33.16-9.88      l-37.03,34.17l-15.84-11.22c0,0,9.57-12.17,22.08-27.21c13.24-15.91,16.07-24.79,41.03-18.81c15.41,3.69,27.26,3.9,38.41,6.45h0      c6.44,1.47,10.56,2.49,10.56,2.49C747.02,564.63,746.9,568.01,746.34,571.27z"></path><path fill="#11442f" d="M746.34 571.27L746.34 571.27c-13.21.84-10.18-12.43-10.18-12.43h0c6.44 1.47 10.56 2.49 10.56 2.49C747.02 564.63 746.9 568.01 746.34 571.27zM635.87 596.68l16.4 11.8c.77.56.95 1.64.39 2.42l0 0c-.56.77-1.64.95-2.42.39l-16.4-11.8c-.77-.56-.95-1.64-.39-2.42l0 0C634.01 596.3 635.1 596.12 635.87 596.68zM664.34 622.75h20.21c.95 0 1.73.78 1.73 1.73l0 0c0 .95-.78 1.73-1.73 1.73h-20.21c-.95 0-1.73-.78-1.73-1.73l0 0C662.61 623.53 663.39 622.75 664.34 622.75z"></path></g><g><path fill="#a3bf50" d="M321.48,602.37h-9.15c0,6.13-4.37,11.25-10.17,12.4c-0.8,0.16-1.62,0.24-2.47,0.24L299.3,615l-3.11,102.72      l-0.06,2.11h1.37h1.67h20.26h1.65l0.25-2.11l8.91-74.9l4.82-40.46H321.48z"></path><path fill="#7a8f3c" d="M335.05,602.37h9.15c0,5.86,3.7,10.79,10.25,12.23c1.25,0.27,2.6,0.42,4.05,0.42l13.54,102.71l0.28,2.11      h-1.65h-1.01h-20.92h-1.85l-0.46-2.11l-16.22-74.89L335.05,602.37z"></path><path fill="#f8a492" d="M329.28 729.83c0 0-3.37 1.64-2.24 5.13h7.42c-.16-1.38-.96-2.61-2.17-3.33C331.12 730.94 330.14 730.36 329.28 729.83zM296.12 725.02v5.23c6.8-.09 6.05-6.12 6.05-6.12-2.72-.17-4.35-.41-4.63-.45-.03 0-.05-.01-.05-.01h-.03C296.72 723.68 296.12 724.28 296.12 725.02z"></path><path fill="#f47458" d="M321.3,724.81c-0.55-0.35-1.15-0.73-1.8-1.14c0,0-0.65,0.09-1.8,0.21c-1.92,0.19-5.23,0.44-9.23,0.44       c-0.34,0-0.67,0-0.99-0.01c-2.06-0.02-3.83-0.09-5.29-0.18c0,0,0.75,6.03-6.05,6.12v4.71h30.92c-1.13-3.5,2.24-5.13,2.24-5.13       c-1.8-1.09-3.14-1.94-4.96-3.1C323.46,726.18,322.48,725.56,321.3,724.81z"></path><path fill="#b75742" d="M296.12,734.96v0.17c0,0.94,0.76,1.7,1.69,1.7h35.35c0.37,0,0.7-0.15,0.94-0.39       c0.24-0.24,0.39-0.58,0.39-0.94c0-0.18-0.01-0.36-0.03-0.53h-7.42H296.12z"></path><path fill="#fae0b2" d="M297.49,719.84v3.84c0,0,0.02,0,0.05,0.01c0.52,0.06,5.25,0.57,9.93,0.63c0.32,0.01,0.65,0.01,0.99,0.01       c4,0,7.31-0.25,9.23-0.44c1.11-0.12,1.73-0.21,1.73-0.21v-3.84h-20.26H297.49z"></path><path fill="#f8a492" d="M318.26 728.13c-.05 0-.1-.02-.14-.06-.08-.08-.08-.21 0-.29l3.04-3.11c.08-.08.21-.08.29 0 .08.08.08.21 0 .29l-3.04 3.11C318.36 728.11 318.31 728.13 318.26 728.13zM319.77 729.16c-.05 0-.1-.02-.14-.06-.08-.08-.08-.21 0-.29l3.04-3.11c.08-.08.21-.08.29 0 .08.08.08.21 0 .29l-3.04 3.11C319.88 729.14 319.83 729.16 319.77 729.16zM321.3 730.03c-.05 0-.1-.02-.14-.06-.08-.08-.08-.21 0-.29l3.02-3.1c.07-.09.19-.11.28-.04.09.07.1.2.04.29l-.01.02-3.04 3.12C321.4 730.01 321.35 730.03 321.3 730.03zM380.59 729.83c0 0-3.37 1.64-2.24 5.13h7.42c-.16-1.38-.96-2.61-2.17-3.33C382.43 730.94 381.45 730.36 380.59 729.83zM347.43 725.02v5.23c6.8-.09 6.05-6.12 6.05-6.12-2.72-.17-4.35-.41-4.63-.45-.03 0-.05-.01-.05-.01h-.03C348.03 723.68 347.43 724.28 347.43 725.02z"></path><path fill="#f47458" d="M372.61,724.81c-0.55-0.35-1.15-0.73-1.8-1.14c0,0-0.65,0.09-1.8,0.21c-1.92,0.19-5.23,0.44-9.23,0.44       c-0.34,0-0.67,0-0.99-0.01c-2.06-0.02-3.83-0.09-5.29-0.18c0,0,0.75,6.03-6.05,6.12v4.71h30.92c-1.13-3.5,2.24-5.13,2.24-5.13       c-1.8-1.09-3.14-1.94-4.96-3.1C374.77,726.18,373.79,725.56,372.61,724.81z"></path><path fill="#b75742" d="M347.43,734.96v0.17c0,0.94,0.76,1.7,1.69,1.7h35.35c0.37,0,0.7-0.15,0.94-0.39       c0.24-0.24,0.39-0.58,0.39-0.94c0-0.18-0.01-0.36-0.03-0.53h-7.42H347.43z"></path><path fill="#fae0b2" d="M348.8,719.84v3.84c0,0,0.02,0,0.05,0.01c0.52,0.06,5.25,0.57,9.93,0.63c0.32,0.01,0.65,0.01,0.99,0.01       c4,0,7.31-0.25,9.23-0.44c1.11-0.12,1.73-0.21,1.73-0.21v-3.84h-20.26H348.8z"></path><path fill="#f8a492" d="M369.57 728.13c-.05 0-.1-.02-.14-.06-.08-.08-.08-.21 0-.29l3.04-3.11c.08-.08.21-.08.29 0 .08.08.08.21 0 .29l-3.04 3.11C369.67 728.11 369.62 728.13 369.57 728.13zM371.08 729.16c-.05 0-.1-.02-.14-.06-.08-.08-.08-.21 0-.29l3.04-3.11c.08-.08.21-.08.29 0 .08.08.08.21 0 .29l-3.04 3.11C371.19 729.14 371.14 729.16 371.08 729.16zM372.61 730.03c-.05 0-.1-.02-.14-.06-.08-.08-.08-.21 0-.29l3.02-3.1c.07-.09.19-.11.28-.04.09.07.1.2.04.29l-.01.02-3.04 3.12C372.71 730.01 372.66 730.03 372.61 730.03z"></path><polygon fill="#3f4411" points="335.05 602.37 333.49 657.9 330.23 642.83"></polygon><path fill="#3f4411" d="M299.69 602.37L299.3 615l.39.01c.85 0 1.67-.08 2.47-.24 5.8-1.15 10.17-6.26 10.17-12.4H299.69zM356.84 602.37H344.2c0 5.86 3.7 10.79 10.25 12.23 1.25.27 2.6.42 4.05.42L356.84 602.37z"></path><path fill="#171c51" d="M299.3 615.21c.8 0 2.04-.06 2.9-.24 5.99-1.18 10.34-6.48 10.34-12.6 0-.11-.09-.2-.2-.2-.11 0-.2.09-.2.2 0 5.92-4.21 11.05-10.01 12.2-.77.16-1.97.23-2.82.23-.11 0-.2.09-.2.2C299.1 615.12 299.19 615.21 299.3 615.21zM354.54 615.4c.01 0 .02 0 .03 0 .11-.02.19-.12.17-.23l-.09-.6c-.02-.11-.12-.19-.23-.17-.11.02-.19.12-.17.23l.09.6C354.35 615.33 354.44 615.4 354.54 615.4zM369.22 718.07l-.17-1.2c-.02-.11.06-.21.17-.23.11-.02.21.06.23.17l.17 1.2c.02.11-.06.21-.17.23-.01 0-.02 0-.03 0C369.32 718.24 369.23 718.17 369.22 718.07zM368.87 715.67l-.17-1.2c-.02-.11.06-.21.17-.23.11-.01.21.06.23.17l.17 1.2c.02.11-.06.21-.17.23-.01 0-.02 0-.03 0C368.97 715.85 368.89 715.78 368.87 715.67zM368.53 713.28l-.17-1.2c-.02-.11.06-.21.17-.23.11-.01.21.06.23.17l.17 1.2c.02.11-.06.21-.17.23-.01 0-.02 0-.03 0C368.63 713.46 368.54 713.38 368.53 713.28zM368.18 710.89l-.17-1.2c-.02-.11.06-.21.17-.23.11-.01.21.06.23.17l.17 1.2c.02.11-.06.21-.17.23-.01 0-.02 0-.03 0C368.28 711.07 368.19 710.99 368.18 710.89zM367.83 708.5l-.17-1.2c-.02-.11.06-.21.17-.23.11-.01.21.06.23.17l.17 1.2c.02.11-.06.21-.17.23-.01 0-.02 0-.03 0C367.93 708.67 367.85 708.6 367.83 708.5zM367.49 706.11l-.17-1.2c-.02-.11.06-.21.17-.23.11-.01.21.06.23.17l.17 1.2c.02.11-.06.21-.17.23-.01 0-.02 0-.03 0C367.59 706.28 367.5 706.21 367.49 706.11zM367.14 703.72l-.17-1.2c-.02-.11.06-.21.17-.23.11-.01.21.06.23.17l.17 1.2c.02.11-.06.21-.17.23-.01 0-.02 0-.03 0C367.24 703.89 367.16 703.82 367.14 703.72zM366.8 701.33l-.17-1.2c-.02-.11.06-.21.17-.23.11-.01.21.06.23.17l.17 1.2c.02.11-.06.21-.17.23-.01 0-.02 0-.03 0C366.9 701.5 366.81 701.43 366.8 701.33zM366.45 698.93l-.17-1.2c-.02-.11.06-.21.17-.23.11-.01.21.06.23.17l.17 1.2c.02.11-.06.21-.17.23-.01 0-.02 0-.03 0C366.55 699.11 366.46 699.03 366.45 698.93zM366.1 696.54l-.17-1.2c-.02-.11.06-.21.17-.23.11-.01.21.06.23.17l.17 1.2c.02.11-.06.21-.17.23-.01 0-.02 0-.03 0C366.2 696.72 366.12 696.64 366.1 696.54zM365.76 694.15l-.17-1.2c-.02-.11.06-.21.17-.23.11-.02.21.06.23.17l.17 1.2c.02.11-.06.21-.17.23-.01 0-.02 0-.03 0C365.86 694.32 365.77 694.25 365.76 694.15zM365.41 691.76l-.17-1.2c-.02-.11.06-.21.17-.23.11-.02.21.06.23.17l.17 1.2c.02.11-.06.21-.17.23-.01 0-.02 0-.03 0C365.51 691.93 365.43 691.86 365.41 691.76zM365.07 689.37l-.17-1.2c-.02-.11.06-.21.17-.23.11-.02.21.06.23.17l.17 1.2c.02.11-.06.21-.17.23-.01 0-.02 0-.03 0C365.17 689.54 365.08 689.47 365.07 689.37zM364.72 686.98l-.17-1.2c-.02-.11.06-.21.17-.23.11-.02.21.06.23.17l.17 1.2c.02.11-.06.21-.17.23-.01 0-.02 0-.03 0C364.82 687.15 364.73 687.08 364.72 686.98zM364.37 684.58l-.17-1.2c-.02-.11.06-.21.17-.23.11-.02.21.06.23.17l.17 1.2c.02.11-.06.21-.17.23-.01 0-.02 0-.03 0C364.47 684.76 364.39 684.69 364.37 684.58zM364.03 682.19l-.17-1.2c-.02-.11.06-.21.17-.23.11-.02.21.06.23.17l.17 1.2c.02.11-.06.21-.17.23-.01 0-.02 0-.03 0C364.13 682.37 364.04 682.29 364.03 682.19zM363.68 679.8l-.17-1.2c-.02-.11.06-.21.17-.23.11-.02.21.06.23.17l.17 1.2c.02.11-.06.21-.17.23-.01 0-.02 0-.03 0C363.78 679.97 363.7 679.9 363.68 679.8zM363.33 677.41l-.17-1.2c-.02-.11.06-.21.17-.23.11-.02.21.06.23.17l.17 1.2c.02.11-.06.21-.17.23-.01 0-.02 0-.03 0C363.44 677.58 363.35 677.51 363.33 677.41zM362.99 675.02l-.17-1.2c-.02-.11.06-.21.17-.23.11-.02.21.06.23.17l.17 1.2c.02.11-.06.21-.17.23-.01 0-.02 0-.03 0C363.09 675.19 363 675.12 362.99 675.02zM362.64 672.63l-.17-1.2c-.02-.11.06-.21.17-.23.11-.02.21.06.23.17l.17 1.2c.02.11-.06.21-.17.23-.01 0-.02 0-.03 0C362.74 672.8 362.66 672.73 362.64 672.63zM362.3 670.23l-.17-1.2c-.02-.11.06-.21.17-.23.11-.02.21.06.23.17l.17 1.2c.02.11-.06.21-.17.23-.01 0-.02 0-.03 0C362.4 670.41 362.31 670.34 362.3 670.23zM361.95 667.84l-.17-1.2c-.02-.11.06-.21.17-.23.11-.02.21.06.23.17l.17 1.2c.02.11-.06.21-.17.23-.01 0-.02 0-.03 0C362.05 668.02 361.97 667.94 361.95 667.84zM361.6 665.45l-.17-1.2c-.02-.11.06-.21.17-.23.11-.02.21.06.23.17l.17 1.2c.02.11-.06.21-.17.23-.01 0-.02 0-.03 0C361.71 665.63 361.62 665.55 361.6 665.45zM361.26 663.06l-.17-1.2c-.02-.11.06-.21.17-.23.11-.02.21.06.23.17l.17 1.2c.02.11-.06.21-.17.23-.01 0-.02 0-.03 0C361.36 663.23 361.27 663.16 361.26 663.06zM360.91 660.67l-.17-1.2c-.02-.11.06-.21.17-.23.11-.02.21.06.23.17l.17 1.2c.02.11-.06.21-.17.23-.01 0-.02 0-.03 0C361.01 660.84 360.93 660.77 360.91 660.67zM360.57 658.28l-.17-1.2c-.02-.11.06-.21.17-.23.11-.02.21.06.23.17l.17 1.2c.02.11-.06.21-.17.23-.01 0-.02 0-.03 0C360.67 658.45 360.58 658.38 360.57 658.28zM360.22 655.89l-.17-1.2c-.02-.11.06-.21.17-.23.11-.02.21.06.23.17l.17 1.2c.02.11-.06.21-.17.23-.01 0-.02 0-.03 0C360.32 656.06 360.23 655.99 360.22 655.89zM359.87 653.49l-.17-1.2c-.02-.11.06-.21.17-.23.11-.02.21.06.23.17l.17 1.2c.02.11-.06.21-.17.23-.01 0-.02 0-.03 0C359.98 653.67 359.89 653.59 359.87 653.49zM359.53 651.1l-.17-1.2c-.02-.11.06-.21.17-.23.11-.02.21.06.23.17l.17 1.2c.02.11-.06.21-.17.23-.01 0-.02 0-.03 0C359.63 651.28 359.54 651.2 359.53 651.1zM359.18 648.71l-.17-1.2c-.02-.11.06-.21.17-.23.11-.02.21.06.23.17l.17 1.2c.02.11-.06.21-.17.23-.01 0-.02 0-.03 0C359.28 648.88 359.2 648.81 359.18 648.71zM358.84 646.32l-.17-1.2c-.02-.11.06-.21.17-.23.11-.02.21.06.23.17l.17 1.2c.02.11-.06.21-.17.23-.01 0-.02 0-.03 0C358.94 646.49 358.85 646.42 358.84 646.32zM358.49 643.93l-.17-1.2c-.02-.11.06-.21.17-.23.11-.02.21.06.23.17l.17 1.2c.02.11-.06.21-.17.23-.01 0-.02 0-.03 0C358.59 644.1 358.5 644.03 358.49 643.93zM358.14 641.54l-.17-1.2c-.02-.11.06-.21.17-.23.11-.02.21.06.23.17l.17 1.2c.02.11-.06.21-.17.23-.01 0-.02 0-.03 0C358.25 641.71 358.16 641.64 358.14 641.54zM357.8 639.14l-.17-1.2c-.02-.11.06-.21.17-.23.11-.02.21.06.23.17l.17 1.2c.02.11-.06.21-.17.23-.01 0-.02 0-.03 0C357.9 639.32 357.81 639.25 357.8 639.14zM357.45 636.75l-.17-1.2c-.02-.11.06-.21.17-.23.11-.02.21.06.23.17l.17 1.2c.02.11-.06.21-.17.23-.01 0-.02 0-.03 0C357.55 636.93 357.47 636.85 357.45 636.75zM357.11 634.36l-.17-1.2c-.02-.11.06-.21.17-.23.11-.02.21.06.23.17l.17 1.2c.02.11-.06.21-.17.23-.01 0-.02 0-.03 0C357.21 634.53 357.12 634.46 357.11 634.36zM356.76 631.97l-.17-1.2c-.02-.11.06-.21.17-.23.11-.02.21.06.23.17l.17 1.2c.02.11-.06.21-.17.23-.01 0-.02 0-.03 0C356.86 632.14 356.77 632.07 356.76 631.97zM356.41 629.58l-.17-1.2c-.02-.11.06-.21.17-.23.11-.02.21.06.23.17l.17 1.2c.02.11-.06.21-.17.23-.01 0-.02 0-.03 0C356.52 629.75 356.43 629.68 356.41 629.58zM356.07 627.19l-.17-1.2c-.02-.11.06-.21.17-.23.11-.02.21.06.23.17l.17 1.2c.02.11-.06.21-.17.23-.01 0-.02 0-.03 0C356.17 627.36 356.08 627.29 356.07 627.19zM355.72 624.79l-.17-1.2c-.02-.11.06-.21.17-.23.11-.02.21.06.23.17l.17 1.2c.02.11-.06.21-.17.23-.01 0-.02 0-.03 0C355.82 624.97 355.74 624.9 355.72 624.79zM355.38 622.4l-.17-1.2c-.02-.11.06-.21.17-.23.11-.02.21.06.23.17l.17 1.2c.02.11-.06.21-.17.23-.01 0-.02 0-.03 0C355.48 622.58 355.39 622.5 355.38 622.4zM355.03 620.01l-.17-1.2c-.02-.11.06-.21.17-.23.11-.02.21.06.23.17l.17 1.2c.02.11-.06.21-.17.23-.01 0-.02 0-.03 0C355.13 620.19 355.04 620.11 355.03 620.01zM354.68 617.62l-.17-1.2c-.02-.11.06-.21.17-.23.11-.02.21.06.23.17l.17 1.2c.02.11-.06.21-.17.23-.01 0-.02 0-.03 0C354.78 617.79 354.7 617.72 354.68 617.62zM369.68 720.04c.01 0 .02 0 .03 0 .11-.02.19-.12.17-.23l-.09-.6c-.02-.11-.12-.18-.23-.17-.11.02-.19.12-.17.23l.09.6C369.49 719.96 369.58 720.04 369.68 720.04z"></path><path fill="#171c51" d="M346.24 717.72c0-.11.09-.2.2-.2h1.22c.11 0 .2.09.2.2 0 .11-.09.2-.2.2h-1.22C346.33 717.93 346.24 717.83 346.24 717.72zM348.68 717.72c0-.11.09-.2.2-.2h1.22c.11 0 .2.09.2.2 0 .11-.09.2-.2.2h-1.22C348.77 717.93 348.68 717.83 348.68 717.72zM351.11 717.72c0-.11.09-.2.2-.2h1.22c.11 0 .2.09.2.2 0 .11-.09.2-.2.2h-1.22C351.2 717.93 351.11 717.83 351.11 717.72zM353.54 717.72c0-.11.09-.2.2-.2h1.22c.11 0 .2.09.2.2 0 .11-.09.2-.2.2h-1.22C353.63 717.93 353.54 717.83 353.54 717.72zM355.98 717.72c0-.11.09-.2.2-.2h1.22c.11 0 .2.09.2.2 0 .11-.09.2-.2.2h-1.22C356.07 717.93 355.98 717.83 355.98 717.72zM358.41 717.72c0-.11.09-.2.2-.2h1.22c.11 0 .2.09.2.2 0 .11-.09.2-.2.2h-1.22C358.5 717.93 358.41 717.83 358.41 717.72zM360.84 717.72c0-.11.09-.2.2-.2h1.22c.11 0 .2.09.2.2 0 .11-.09.2-.2.2h-1.22C360.93 717.93 360.84 717.83 360.84 717.72zM363.27 717.72c0-.11.09-.2.2-.2h1.22c.11 0 .2.09.2.2 0 .11-.09.2-.2.2h-1.22C363.37 717.93 363.27 717.83 363.27 717.72zM365.71 717.72c0-.11.09-.2.2-.2h1.22c.11 0 .2.09.2.2 0 .11-.09.2-.2.2h-1.22C365.8 717.93 365.71 717.83 365.71 717.72zM368.14 717.72c0-.11.09-.2.2-.2h1.22c.11 0 .2.09.2.2 0 .11-.09.2-.2.2h-1.22C368.23 717.93 368.14 717.83 368.14 717.72zM370.57 717.72c0-.11.09-.2.2-.2h1.22c.11 0 .2.09.2.2 0 .11-.09.2-.2.2h-1.22C370.66 717.93 370.57 717.83 370.57 717.72zM299.15 720.04c-.11 0-.2-.1-.2-.21l.01-.49c0-.11.1-.19.21-.2.11 0 .2.1.2.21l-.01.49C299.36 719.95 299.27 720.04 299.15 720.04 299.16 720.04 299.16 720.04 299.15 720.04zM299.2 718.33c-.11 0-.2-.1-.2-.21l.03-1.22c0-.11.1-.2.21-.2.11 0 .2.1.2.21l-.03 1.22C299.41 718.24 299.32 718.33 299.2 718.33 299.21 718.33 299.21 718.33 299.2 718.33zM299.27 715.9c-.11 0-.2-.1-.2-.21l.03-1.22c0-.11.1-.19.21-.2.11 0 .2.1.2.21l-.03 1.22C299.48 715.81 299.39 715.9 299.27 715.9 299.28 715.9 299.28 715.9 299.27 715.9zM299.34 713.47c-.11 0-.2-.1-.2-.21l.03-1.22c0-.11.09-.2.21-.2.11 0 .2.1.2.21l-.03 1.22C299.55 713.38 299.46 713.47 299.34 713.47 299.35 713.47 299.34 713.47 299.34 713.47zM299.41 711.03c-.11 0-.2-.1-.2-.21l.03-1.22c0-.11.09-.19.21-.2.11 0 .2.1.2.21l-.03 1.22C299.62 710.95 299.53 711.03 299.41 711.03 299.42 711.03 299.41 711.03 299.41 711.03zM299.48 708.6c-.11 0-.2-.1-.2-.21l.03-1.22c0-.11.1-.2.21-.2.11 0 .2.1.2.21l-.03 1.22C299.69 708.51 299.6 708.6 299.48 708.6 299.49 708.6 299.48 708.6 299.48 708.6zM299.55 706.17c-.11 0-.2-.1-.2-.21l.03-1.22c0-.11.1-.2.21-.2.11 0 .2.1.2.21l-.03 1.22C299.76 706.08 299.67 706.17 299.55 706.17 299.55 706.17 299.55 706.17 299.55 706.17zM299.62 703.74c-.11 0-.2-.1-.2-.21l.03-1.22c0-.11.1-.2.21-.2.11 0 .2.1.2.21l-.03 1.22C299.83 703.65 299.74 703.74 299.62 703.74 299.62 703.74 299.62 703.74 299.62 703.74zM299.69 701.31c-.11 0-.2-.1-.2-.21l.03-1.22c0-.11.09-.2.21-.2.11 0 .2.1.2.21l-.03 1.22C299.89 701.22 299.8 701.31 299.69 701.31 299.69 701.31 299.69 701.31 299.69 701.31zM299.76 698.87c-.11 0-.2-.1-.2-.21l.03-1.22c0-.11.1-.19.21-.2.11 0 .2.1.2.21l-.03 1.22C299.96 698.79 299.87 698.87 299.76 698.87 299.76 698.87 299.76 698.87 299.76 698.87zM299.83 696.44c-.11 0-.2-.1-.2-.21l.03-1.22c0-.11.1-.2.21-.2.11 0 .2.1.2.21l-.03 1.22C300.03 696.36 299.94 696.44 299.83 696.44 299.83 696.44 299.83 696.44 299.83 696.44zM299.9 694.01c-.11 0-.2-.1-.2-.21l.03-1.22c0-.11.09-.2.21-.2.11 0 .2.1.2.21l-.03 1.22C300.1 693.92 300.01 694.01 299.9 694.01 299.9 694.01 299.9 694.01 299.9 694.01zM299.97 691.58c-.11 0-.2-.1-.2-.21l.03-1.22c0-.11.09-.2.21-.2.11 0 .2.1.2.21l-.03 1.22C300.17 691.49 300.08 691.58 299.97 691.58 299.97 691.58 299.97 691.58 299.97 691.58zM300.04 689.15c-.11 0-.2-.1-.2-.21l.03-1.22c0-.11.1-.19.21-.2.11 0 .2.1.2.21l-.03 1.22C300.24 689.06 300.15 689.15 300.04 689.15 300.04 689.15 300.04 689.15 300.04 689.15zM300.11 686.71c-.11 0-.2-.1-.2-.21l.03-1.22c0-.11.1-.2.21-.2.11 0 .2.1.2.21l-.03 1.22C300.31 686.63 300.22 686.71 300.11 686.71 300.11 686.71 300.11 686.71 300.11 686.71zM300.17 684.28c-.11 0-.2-.1-.2-.21l.03-1.22c0-.11.1-.2.21-.2.11 0 .2.1.2.21l-.04 1.22C300.38 684.2 300.29 684.28 300.17 684.28 300.18 684.28 300.18 684.28 300.17 684.28zM300.24 681.85c-.11 0-.2-.1-.2-.21l.03-1.22c0-.11.09-.19.21-.2.11 0 .2.1.2.21l-.03 1.22C300.45 681.76 300.36 681.85 300.24 681.85 300.25 681.85 300.25 681.85 300.24 681.85zM300.31 679.42c-.11 0-.2-.1-.2-.21l.03-1.22c0-.11.09-.2.21-.2.11 0 .2.1.2.21l-.03 1.22C300.52 679.33 300.43 679.42 300.31 679.42 300.32 679.42 300.32 679.42 300.31 679.42zM300.38 676.99c-.11 0-.2-.1-.2-.21l.03-1.22c0-.11.1-.19.21-.2.11 0 .2.1.2.21l-.03 1.22C300.59 676.9 300.5 676.99 300.38 676.99 300.39 676.99 300.38 676.99 300.38 676.99zM300.45 674.56c-.11 0-.2-.1-.2-.21l.03-1.22c0-.11.1-.2.21-.2.11 0 .2.1.2.21l-.03 1.22C300.66 674.47 300.57 674.56 300.45 674.56 300.46 674.56 300.45 674.56 300.45 674.56zM300.52 672.12c-.11 0-.2-.1-.2-.21l.03-1.22c0-.11.09-.19.21-.2.11 0 .2.1.2.21l-.03 1.22C300.73 672.04 300.64 672.12 300.52 672.12 300.53 672.12 300.52 672.12 300.52 672.12zM300.59 669.69c-.11 0-.2-.1-.2-.21l.03-1.22c0-.11.09-.21.21-.2.11 0 .2.1.2.21l-.03 1.22C300.8 669.6 300.71 669.69 300.59 669.69 300.59 669.69 300.59 669.69 300.59 669.69zM300.66 667.26c-.11 0-.2-.1-.2-.21l.03-1.22c0-.11.1-.2.21-.2.11 0 .2.1.2.21l-.03 1.22C300.87 667.17 300.78 667.26 300.66 667.26 300.66 667.26 300.66 667.26 300.66 667.26zM300.73 664.83c-.11 0-.2-.1-.2-.21l.03-1.22c0-.11.1-.2.21-.2.11 0 .2.1.2.21l-.03 1.22C300.93 664.74 300.84 664.83 300.73 664.83 300.73 664.83 300.73 664.83 300.73 664.83zM300.8 662.4c-.11 0-.2-.1-.2-.21l.03-1.22c0-.11.1-.2.21-.2.11 0 .2.1.2.21l-.03 1.22C301 662.31 300.91 662.4 300.8 662.4 300.8 662.4 300.8 662.4 300.8 662.4zM300.87 659.96c-.11 0-.2-.1-.2-.21l.03-1.22c0-.11.09-.2.21-.2.11 0 .2.1.2.21l-.03 1.22C301.07 659.88 300.98 659.96 300.87 659.96 300.87 659.96 300.87 659.96 300.87 659.96zM300.94 657.53c-.11 0-.2-.1-.2-.21l.03-1.22c0-.11.1-.2.21-.2.11 0 .2.1.2.21l-.03 1.22C301.14 657.45 301.05 657.53 300.94 657.53 300.94 657.53 300.94 657.53 300.94 657.53zM301.01 655.1c-.11 0-.2-.1-.2-.21l.03-1.22c0-.11.1-.19.21-.2.11 0 .2.1.2.21l-.03 1.22C301.21 655.01 301.12 655.1 301.01 655.1 301.01 655.1 301.01 655.1 301.01 655.1zM301.08 652.67c-.11 0-.2-.1-.2-.21l.03-1.22c0-.11.1-.2.21-.2.11 0 .2.1.2.21l-.03 1.22C301.28 652.58 301.19 652.67 301.08 652.67 301.08 652.67 301.08 652.67 301.08 652.67zM301.15 650.24c-.11 0-.2-.1-.2-.21l.03-1.22c0-.11.09-.19.21-.2.11 0 .2.1.2.21l-.03 1.22C301.35 650.15 301.26 650.24 301.15 650.24 301.15 650.24 301.15 650.24 301.15 650.24zM301.21 647.8c-.11 0-.2-.1-.2-.21l.03-1.22c0-.11.1-.2.21-.2.11 0 .2.1.2.21l-.03 1.22C301.42 647.72 301.33 647.8 301.21 647.8 301.22 647.8 301.22 647.8 301.21 647.8zM301.28 645.37c-.11 0-.2-.1-.2-.21l.03-1.22c0-.11.1-.2.21-.2.11 0 .2.1.2.21l-.03 1.22C301.49 645.29 301.4 645.37 301.28 645.37 301.29 645.37 301.29 645.37 301.28 645.37zM301.35 642.94c-.11 0-.2-.1-.2-.21l.03-1.22c0-.11.1-.2.21-.2.11 0 .2.1.2.21l-.03 1.22C301.56 642.85 301.47 642.94 301.35 642.94 301.36 642.94 301.36 642.94 301.35 642.94zM301.42 640.51c-.11 0-.2-.1-.2-.21l.03-1.22c0-.11.09-.2.21-.2.11 0 .2.1.2.21l-.03 1.22C301.63 640.42 301.54 640.51 301.42 640.51 301.43 640.51 301.42 640.51 301.42 640.51zM301.49 638.08c-.11 0-.2-.1-.2-.21l.03-1.22c0-.11.09-.19.21-.2.11 0 .2.1.2.21l-.03 1.22C301.7 637.99 301.61 638.08 301.49 638.08 301.5 638.08 301.49 638.08 301.49 638.08zM301.56 635.65c-.11 0-.2-.1-.2-.21l.03-1.22c0-.11.1-.2.21-.2.11 0 .2.1.2.21l-.03 1.22C301.77 635.56 301.68 635.65 301.56 635.65 301.57 635.65 301.56 635.65 301.56 635.65zM301.63 633.21c-.11 0-.2-.1-.2-.21l.03-1.22c0-.11.1-.19.21-.2.11 0 .2.1.2.21l-.03 1.22C301.84 633.13 301.75 633.21 301.63 633.21 301.63 633.21 301.63 633.21 301.63 633.21zM301.7 630.78c-.11 0-.2-.1-.2-.21l.03-1.22c0-.11.1-.2.21-.2.11 0 .2.1.2.21l-.03 1.22C301.91 630.69 301.82 630.78 301.7 630.78 301.7 630.78 301.7 630.78 301.7 630.78zM301.77 628.35c-.11 0-.2-.1-.2-.21l.03-1.22c0-.11.09-.19.21-.2.11 0 .2.1.2.21l-.03 1.22C301.98 628.26 301.89 628.35 301.77 628.35 301.77 628.35 301.77 628.35 301.77 628.35zM301.84 625.92c-.11 0-.2-.1-.2-.21l.03-1.22c0-.11.1-.2.21-.2.11 0 .2.1.2.21l-.03 1.22C302.04 625.83 301.95 625.92 301.84 625.92 301.84 625.92 301.84 625.92 301.84 625.92zM301.91 623.49c-.11 0-.2-.1-.2-.21l.03-1.22c0-.11.1-.2.21-.2.11 0 .2.1.2.21l-.03 1.22C302.11 623.4 302.02 623.49 301.91 623.49 301.91 623.49 301.91 623.49 301.91 623.49zM301.98 621.05c-.11 0-.2-.1-.2-.21l.03-1.22c0-.11.1-.2.21-.2.11 0 .2.1.2.21l-.03 1.22C302.18 620.97 302.09 621.05 301.98 621.05 301.98 621.05 301.98 621.05 301.98 621.05zM302.05 618.62c-.11 0-.2-.1-.2-.21l.03-1.22c0-.11.09-.2.21-.2.11 0 .2.1.2.21l-.03 1.22C302.25 618.54 302.16 618.62 302.05 618.62 302.05 618.62 302.05 618.62 302.05 618.62zM302.12 616.19c-.11 0-.2-.1-.2-.21l.03-1.22c0-.11.1-.19.21-.2.11 0 .2.1.2.21l-.03 1.22C302.32 616.1 302.23 616.19 302.12 616.19 302.12 616.19 302.12 616.19 302.12 616.19z"></path><path fill="#171c51" d="M295.99,717.72c0-0.11,0.09-0.2,0.2-0.2h0.78c0.11,0,0.2,0.09,0.2,0.2c0,0.11-0.09,0.2-0.2,0.2h-0.78          C296.08,717.93,295.99,717.83,295.99,717.72z M297.98,717.72c0-0.11,0.09-0.2,0.2-0.2h1.22c0.11,0,0.2,0.09,0.2,0.2          c0,0.11-0.09,0.2-0.2,0.2h-1.22C298.07,717.93,297.98,717.83,297.98,717.72z M300.41,717.72c0-0.11,0.09-0.2,0.2-0.2h1.22          c0.11,0,0.2,0.09,0.2,0.2c0,0.11-0.09,0.2-0.2,0.2h-1.22C300.5,717.93,300.41,717.83,300.41,717.72z M302.85,717.72          c0-0.11,0.09-0.2,0.2-0.2h1.22c0.11,0,0.2,0.09,0.2,0.2c0,0.11-0.09,0.2-0.2,0.2h-1.22          C302.94,717.93,302.85,717.83,302.85,717.72z M305.28,717.72c0-0.11,0.09-0.2,0.2-0.2h1.22c0.11,0,0.2,0.09,0.2,0.2          c0,0.11-0.09,0.2-0.2,0.2h-1.22C305.37,717.93,305.28,717.83,305.28,717.72z M307.71,717.72c0-0.11,0.09-0.2,0.2-0.2h1.22          c0.11,0,0.2,0.09,0.2,0.2c0,0.11-0.09,0.2-0.2,0.2h-1.22C307.8,717.93,307.71,717.83,307.71,717.72z M310.14,717.72          c0-0.11,0.09-0.2,0.2-0.2h1.22c0.11,0,0.2,0.09,0.2,0.2c0,0.11-0.09,0.2-0.2,0.2h-1.22          C310.24,717.93,310.14,717.83,310.14,717.72z M312.58,717.72c0-0.11,0.09-0.2,0.2-0.2H314c0.11,0,0.2,0.09,0.2,0.2          c0,0.11-0.09,0.2-0.2,0.2h-1.22C312.67,717.93,312.58,717.83,312.58,717.72z M315.01,717.72c0-0.11,0.09-0.2,0.2-0.2h1.22          c0.11,0,0.2,0.09,0.2,0.2c0,0.11-0.09,0.2-0.2,0.2h-1.22C315.1,717.93,315.01,717.83,315.01,717.72z M317.44,717.72          c0-0.11,0.09-0.2,0.2-0.2h1.22c0.11,0,0.2,0.09,0.2,0.2c0,0.11-0.09,0.2-0.2,0.2h-1.22          C317.53,717.93,317.44,717.83,317.44,717.72z M319.88,717.72c0-0.11,0.09-0.2,0.2-0.2h1.22c0.11,0,0.2,0.09,0.2,0.2          c0,0.11-0.09,0.2-0.2,0.2h-1.22C319.97,717.93,319.88,717.83,319.88,717.72z"></path><polygon points="299.68 602.37 357.63 608.34 356.84 602.37" opacity=".4"></polygon><path fill="#50bfa5" d="M335.05,532.51c0,0,19.77,2.83,29.4,14c9.63,11.16-3.33,10.96-6.9,10.55     C353.98,556.65,335.05,532.51,335.05,532.51z"></path><g><polygon fill="#fae0b2" points="316.6 520.26 318.34 534.25 331.02 532.31 331.12 531.94 331.57 530.2 332.04 528.38 332.05 528.36 333.76 521.76"></polygon><path fill="#fae0b2" d="M315.62,515.13c0.29,7.98,5.3,15.36,13.28,15.07s14.15-0.25,15.62-16.11c0.73-7.95-6.99-14.22-14.97-13.93      C321.57,500.44,315.34,507.15,315.62,515.13z"></path><path fill="#13375b" d="M330.61,507.44c-2.46-1.16-5.28-1.38-7.86-0.51c-0.4,0.13-0.76,0.27-1.03,0.4      c-1.52,0.74-1.3,4.99-1.3,4.99s-2.02-1.6-2.61,1.18c-0.59,2.78,2.01,3.2,2.01,3.2l-1.71,7.23c0,0-2.71-4.41-4.57-12.09      c-1.8-7.45,4.32-19.22,11.6-16.94c0,0,6.05-5.14,13.36-2.91c7.99,2.44,13.5,7.51,16.85,3.65c0,0-2.27,18.98-17.62,14.31      L330.61,507.44z"></path><path fill="#fe875e" d="M330.69,533.93l0.88-3.73c0,0-9.2,0.75-12.5-4.83C319.07,525.36,319.12,532.96,330.69,533.93z"></path></g><g><path fill="#96d9c9" d="M298.49,580l-1.01-17.98c-0.81-14.42-0.05-29.51,23.12-29.5c0.03-0.01,0.06-0.01,0.09-0.02       c1.54-0.25,2.67-0.36,3.2-0.4c0.23-0.02,0.34-0.02,0.34-0.02c29.87,0,29.06,11.1,29.94,26.76l0.94,16.85l3.01,24.8       c0.21,1.76-1.16,3.31-2.93,3.32l-54.79,0.25c-1.7,0.01-3.06-1.41-2.97-3.11L298.49,580z"></path><path fill="#587cf8" d="M323.9,532.1c-0.54,0.04-1.67,0.15-3.2,0.4C321.75,532.31,322.82,532.18,323.9,532.1z"></path></g><path fill="#fe875e" d="M347.65,571.89L347.65,571.89c-0.77-0.75-2.71,0.38-1.96-0.39l4.85-5.39c0.75-0.77,1.99-0.79,2.76-0.04l0,0     c0.77,0.75,0.79,1.99,0.04,2.76l-2.93,3.01C349.67,572.62,348.42,572.64,347.65,571.89z"></path><g><path fill="#7181aa" d="M354.66,580.89l-1.18-0.04c-1.44-0.05-2.57-1.26-2.53-2.7l1.18-35.44c0.05-1.45,1.26-2.57,2.7-2.53      l1.14,0.04c-1.43-0.03-2.62,1.09-2.66,2.52l-1.18,35.44C352.09,579.63,353.22,580.84,354.66,580.89z"></path><path fill="#96a4cd" d="M377.92,581.66l-1.14-0.04l-22.12-0.73c-1.44-0.05-2.57-1.26-2.53-2.7l1.18-35.44      c0.04-1.43,1.23-2.55,2.66-2.52c0.02,0,0.03-0.01,0.04,0l22.08,0.74l1.18,0.04c1.44,0.05,2.57,1.26,2.53,2.7l-1.18,35.44      C380.57,580.58,379.36,581.71,377.92,581.66z"></path><circle cx="366.97" cy="560.94" r="2.52" fill="#fff" transform="rotate(-6.8 366.96 560.935)"></circle><path fill="#fff" d="M377.37,544.21c-0.1,0.52,0.24,1.01,0.76,1.11c0.52,0.1,1.01-0.24,1.11-0.76c0.1-0.52-0.24-1.01-0.76-1.11      S377.47,543.69,377.37,544.21z"></path></g><g><path fill="#fae0b2" d="M353.06,580.96l-2.36,0.3c-3.08,0.39-5.93-1.81-6.32-4.89l0,0c-0.39-3.08,1.81-5.93,4.89-6.32l2.36-0.3       c3.08-0.39,5.93,1.81,6.32,4.89v0C358.35,577.72,356.14,580.56,353.06,580.96z"></path><path fill="#fae0b2" d="M350.83,571.81L350.83,571.81c-0.14-1.07,0.63-2.05,1.69-2.19l4.17-0.53c1.07-0.14,2.05,0.63,2.19,1.69       l0,0c0.14,1.07-0.63,2.05-1.69,2.19l-4.17,0.53C351.95,573.64,350.97,572.88,350.83,571.81z"></path><path fill="#fae0b2" d="M353.77,573.89L353.77,573.89c-0.14-1.07,0.63-2.05,1.69-2.19l4.17-0.53c1.07-0.14,2.05,0.63,2.19,1.69       l0,0c0.14,1.07-0.63,2.05-1.69,2.19l-4.17,0.53C354.89,575.72,353.91,574.96,353.77,573.89z"></path><path fill="#fae0b2" d="M353.08,576.44L353.08,576.44c-0.14-1.07,0.63-2.05,1.69-2.19l4.17-0.53c1.07-0.14,2.05,0.63,2.19,1.69       l0,0c0.14,1.07-0.63,2.05-1.69,2.19l-4.17,0.53C354.2,578.27,353.22,577.51,353.08,576.44z"></path><path fill="#fae0b2" d="M351.01,579.16L351.01,579.16c-0.14-1.07,0.63-2.05,1.69-2.19l4.17-0.53c1.07-0.14,2.05,0.63,2.19,1.69       l0,0c0.14,1.07-0.63,2.05-1.69,2.19l-4.17,0.53C352.13,580.99,351.15,580.23,351.01,579.16z"></path><rect width="6.36" height=".41" x="352.57" y="571.63" fill="#fe875e" transform="rotate(-10.219 355.721 571.804)"></rect><rect width="6.23" height=".41" x="354.74" y="575.11" fill="#fe875e" transform="rotate(-10.219 357.813 575.26)"></rect><rect width="5.35" height=".41" x="353.49" y="577.95" fill="#fe875e" transform="rotate(-10.219 356.133 578.114)"></rect></g><path fill="#50bfa5" d="M309.05,536.18c-6.61,0.11-11.72,5.82-11.12,12.41c0.26,2.81,0.51,5.28,0.71,6.32     c0.13,0.76,0.3,1.54,0.45,2.32c0.16,0.77,0.32,1.54,0.52,2.33c0.19,0.78,0.37,1.56,0.58,2.34l0.67,2.36     c0.1,0.39,0.23,0.79,0.37,1.19l0.4,1.2l0.4,1.2l0.47,1.23l0.49,1.22c0.08,0.2,0.16,0.4,0.25,0.61l0.29,0.63l0.59,1.26l0.3,0.63     l0.15,0.31l0.25,0.47c0.36,0.65,0.72,1.3,1.14,1.91c0.43,0.6,0.87,1.19,1.33,1.75c0.48,0.53,0.97,1.04,1.48,1.54     c0.51,0.47,1.03,0.89,1.56,1.31c2.13,1.59,4.28,2.61,6.31,3.31c0.5,0.16,1.02,0.35,1.51,0.47l1.47,0.38     c0.95,0.2,1.91,0.38,2.83,0.49c1.84,0.24,3.62,0.34,5.33,0.32c3.42-0.02,6.64-0.43,9.76-1c1.56-0.31,3.09-0.65,4.6-1.06     c0.76-0.21,1.51-0.42,2.26-0.66l1.13-0.37l1.2-0.41l-1.99-11c-0.09-0.02-0.28-0.03-0.43-0.04l-0.49-0.03l-1-0.07     c-0.67-0.04-1.34-0.1-2-0.15c-1.34-0.12-2.66-0.23-3.96-0.41c-2.6-0.31-5.13-0.76-7.4-1.35c-1.14-0.29-2.2-0.65-3.15-1.02     c-0.23-0.1-0.48-0.18-0.69-0.29c-0.21-0.11-0.43-0.21-0.64-0.3l-0.56-0.31c-0.2-0.1-0.32-0.22-0.49-0.32     c-0.6-0.42-0.9-1.85-0.9-1.85l-0.2-0.74l-0.1-0.36c-0.03-0.13-0.06-0.27-0.09-0.41l-0.17-0.82l-0.19-0.81l-0.16-0.88     c-0.1-0.59-0.22-1.15-0.31-1.77c-0.2-1.21-0.75-7.13-1.24-12.68C320.04,540.6,315.01,536.07,309.05,536.18L309.05,536.18z"></path><g><path fill="#fae0b2" d="M377.3,567.61L377.3,567.61c-0.12,1.07,0.66,2.04,1.73,2.16l4.17,0.46c1.07,0.12,2.04-0.66,2.16-1.73l0,0      c0.12-1.07-0.66-2.04-1.73-2.16l-4.17-0.46C378.39,565.77,377.42,566.54,377.3,567.61z"></path><path fill="#fae0b2" d="M376.28,564.12L376.28,564.12c-0.12,1.07,0.66,2.04,1.73,2.16l5.38,0.59c1.07,0.12,2.04-0.66,2.16-1.73l0,0      c0.12-1.07-0.66-2.04-1.73-2.16l-5.38-0.59C377.37,562.27,376.4,563.05,376.28,564.12z"></path><path fill="#fae0b2" d="M377.65,561.24L377.65,561.24c-0.12,1.07,0.66,2.04,1.73,2.16l4.17,0.46c1.07,0.12,2.04-0.66,2.16-1.73l0,0      c0.12-1.07-0.66-2.04-1.73-2.16l-4.17-0.46C378.74,559.39,377.77,560.17,377.65,561.24z"></path><path fill="#fae0b2" d="M378.85,558.43L378.85,558.43c-0.12,1.07,0.66,2.04,1.73,2.16l1.85,0.2c1.07,0.12,2.04-0.66,2.16-1.73l0,0      c0.12-1.07-0.66-2.04-1.73-2.16l-1.85-0.2C379.93,556.58,378.97,557.35,378.85,558.43z"></path><rect width=".41" height="6.49" x="381.05" y="563.22" fill="#fe875e" transform="rotate(-86.577 381.242 566.472)"></rect><rect width=".41" height="6.99" x="381.17" y="559.26" fill="#fe875e" transform="rotate(-84.203 381.393 562.756)"></rect><rect width=".41" height="4.92" x="381.32" y="557.31" fill="#fe875e" transform="rotate(-85.36 381.506 559.776)"></rect></g></g></g></svg>