<svg id="ea95e69c-c1d4-4fde-8369-913c43ceac12" data-name="Layer 1" xmlns="http://www.w3.org/2000/svg" xmlns:xlink="http://www.w3.org/1999/xlink" width="865.76" height="682.89" viewBox="0 0 865.76 682.89"><defs><clipPath id="ecaea8f2-fc8c-4005-90b5-9d78d30c960f"><path d="M805.55,502.31c48.29-75.25,51.55-175.5,18.21-255.89-28.66-69.2-92.59-122-166.37-153.43-85.6-36.45-187.64-47.31-279.51-24.3-24.17,6-47.69,11.6-70.48,21.55C214,131,232,231.48,199.26,266.42c-27.56,29.4-80.3,20.73-113.53,43.27C-4,370.49-4.19,524.17,99.31,572.2,209.09,623.18,685.92,688.69,805.55,502.31Z" fill="none"/></clipPath></defs><g id="ef42eacd-84ff-47bd-b22d-1e030881c311" data-name="freepik--background-simple--inject-346"><path d="M805.55,502.31c48.29-75.25,51.55-175.5,18.21-255.89-28.66-69.2-92.59-122-166.37-153.43-85.6-36.45-187.64-47.31-279.51-24.3-24.17,6-47.69,11.6-70.48,21.55C214,131,232,231.48,199.26,266.42c-27.56,29.4-80.3,20.73-113.53,43.27C-4,370.49-4.19,524.17,99.31,572.2,209.09,623.18,685.92,688.69,805.55,502.31Z" fill="#92e3a9"/><path d="M805.55,502.31c48.29-75.25,51.55-175.5,18.21-255.89-28.66-69.2-92.59-122-166.37-153.43-85.6-36.45-187.64-47.31-279.51-24.3-24.17,6-47.69,11.6-70.48,21.55C214,131,232,231.48,199.26,266.42c-27.56,29.4-80.3,20.73-113.53,43.27C-4,370.49-4.19,524.17,99.31,572.2,209.09,623.18,685.92,688.69,805.55,502.31Z" fill="#fff" opacity="0.8" style="isolation:isolate"/></g><path d="M92.69,268.26s-3.29,14.68,2.24,23.12L106.57,319s1.46,7.28-2.62,9c0,0-7,2-5,13.39,0,0,1.17,12.22,4.08,12.22,0,0,2.62,1.46-.58-13.09,0,0,3.2,9.6,7.27,6.11,0,0,3.2-12.51.87-21.83,0,0-6.26-10.52,2.33-27.93l-.26-8.62s-5.3,1.89-3.83-10.46c0,0-5.78,4-11-5.77C97.85,272.06,96.18,271.46,92.69,268.26Z" fill="#f9b499"/><rect x="156.15" y="186.24" width="221.69" height="157.49" fill="#ebebeb"/><rect x="148.47" y="181.31" width="237.05" height="8.78" fill="#bcbec0"/><path d="M271.16,208.65v9.15h10.58v-9.15h2.85v21.86h-2.85V220.26H271.16v10.25h-2.82V208.65Z" fill="#bcbec0"/><path d="M288.48,230.51v-1.75l2.24-2.17c5.38-5.13,7.81-7.85,7.85-11,0-2.14-1-4.12-4.19-4.12a7.17,7.17,0,0,0-4.47,1.78l-.91-2a9.26,9.26,0,0,1,6-2.14c4.54,0,6.45,3.11,6.45,6.13,0,3.89-2.82,7-7.26,11.32l-1.69,1.56v.06h9.47v2.37Z" fill="#bcbec0"/><path d="M305.73,227.07a10,10,0,0,0,5.06,1.43c2.89,0,4.58-1.53,4.58-3.73,0-2-1.17-3.21-4.12-4.35-3.57-1.26-5.78-3.11-5.78-6.19,0-3.41,2.83-5.94,7.07-5.94a10,10,0,0,1,4.84,1.07l-.78,2.3a8.69,8.69,0,0,0-4.15-1c-3,0-4.12,1.78-4.12,3.27,0,2,1.33,3,4.34,4.22,3.7,1.43,5.58,3.21,5.58,6.42,0,3.38-2.49,6.3-7.65,6.3a11.29,11.29,0,0,1-5.58-1.4Z" fill="#bcbec0"/><path d="M335.12,219.74c0,7.17-2.66,11.13-7.33,11.13-4.12,0-6.91-3.86-7-10.84s3.05-11,7.33-11C332.59,209.07,335.12,213,335.12,219.74Zm-11.45.33c0,5.48,1.68,8.59,4.28,8.59,2.92,0,4.31-3.4,4.31-8.79,0-5.19-1.33-8.6-4.28-8.6C325.48,211.27,323.67,214.32,323.67,220.07Z" fill="#bcbec0"/><path d="M346.57,230.51v-5.74h-9.8v-1.88l9.41-13.46h3.08v13.1h2.95v2.24h-2.95v5.74Zm0-8v-7c0-1.1,0-2.2.09-3.31h-.09c-.65,1.24-1.17,2.14-1.76,3.12l-5.15,7.17v.06Z" fill="#bcbec0"/><circle cx="325.59" cy="270.85" r="6.92" fill="#d1d3d4"/><circle cx="294.38" cy="284.36" r="6.92" fill="#d1d3d4"/><circle cx="355.19" cy="294.34" r="6.92" fill="#d1d3d4"/><circle cx="332.99" cy="318.79" r="6.92" fill="#d1d3d4"/><line x1="300.33" y1="287.42" x2="320.6" y2="295.46" fill="none" stroke="#d1d3d4" stroke-miterlimit="10"/><line x1="325.59" y1="277.77" x2="325.59" y2="292.57" fill="none" stroke="#d1d3d4" stroke-miterlimit="10"/><line x1="348.27" y1="294.34" x2="329.93" y2="296.91" fill="none" stroke="#d1d3d4" stroke-miterlimit="10"/><line x1="330.9" y1="312.52" x2="327.04" y2="300.93" fill="none" stroke="#d1d3d4" stroke-miterlimit="10"/><rect x="148.47" y="339.89" width="237.05" height="8.78" fill="#bcbec0"/><rect x="265.19" y="353.7" width="7.01" height="117.84" fill="#bcbec0"/><path d="M356.46,489.83h0a3.52,3.52,0,0,1-4.63-1.81l-58-133.14,6.41-2.84,58,133.18A3.51,3.51,0,0,1,356.46,489.83Z" fill="#bcbec0"/><path d="M185.32,490.25h0a3.5,3.5,0,0,1-1.9-4.59l55.91-134,6.48,2.66L189.89,488.36A3.51,3.51,0,0,1,185.32,490.25Z" fill="#bcbec0"/><path d="M118.66,288.61s-14.81,16.52-8.69,34.48a28.17,28.17,0,0,1,1.46,11.37c-.8,10.05-2.89,28.68-7.81,40.65,0,0-9.06,28.52-14.26,37.38a1.11,1.11,0,0,0,.64,1.64c3.6,1.1,13.16,4.45,18.58,10.23a2.25,2.25,0,0,0,3.31-.06l16.3-18.1,1.5-122.36S122.17,285.85,118.66,288.61Z" fill="#2f2e41"/><path d="M118.66,288.61s-14.81,16.52-8.69,34.48a28.17,28.17,0,0,1,1.46,11.37c-.8,10.05-2.89,28.68-7.81,40.65,0,0-9.06,28.52-14.26,37.38a1.11,1.11,0,0,0,.64,1.64c3.6,1.1,13.16,4.45,18.58,10.23a2.25,2.25,0,0,0,3.31-.06l16.3-18.1,1.5-122.36S122.17,285.85,118.66,288.61Z" opacity="0.2"/><path d="M91.38,412.75s-7.49,13.17-9.83,15.51c0,0,8.12,4.06,11.31,11.06.06.12.19.18.28.09L110,423A40.67,40.67,0,0,0,91.38,412.75Z" fill="#f9b499"/><path d="M81.55,428.26a47.55,47.55,0,0,1-12.2,6s8.52,2.17,6.18,17.05c0,0-3,23.73.67,28.58A69.15,69.15,0,0,0,82.27,487a.06.06,0,0,0,.09-.07c-1.1-2-6.37-12.24-3.3-19.63.54-1.32,1.11-2.63,1.55-4,1.7-5.34,6.27-18.15,12.53-23.89C93.14,439.41,87.9,430.77,81.55,428.26Z" fill="#0071f2"/><path d="M70.3,434.75a3.72,3.72,0,0,0-1.93-.48c-3.78.08-17,1.71-11.56,20.57,0,0,3.35,10.69,1.67,17.55,0,0-3.17,15.21,8,15.88,0,0,13,1,15.76-1.28,0,0-8.91-5.74-7.91-16.11l1-17.55S78.64,439.47,70.3,434.75Z" fill="#d1d3d4"/><ellipse cx="64.5" cy="445.81" rx="6.69" ry="8.19" opacity="0.2"/><path d="M122.92,431s1.59,14.32,4.43,21a22.34,22.34,0,0,1,1.34,8.35l18.72-.16,3.07-29.77S135.63,432.66,122.92,431Z" fill="#f9b499"/><path d="M128.69,460.35s.5,12-1.51,17.22c0,0-1.84,5-.5,7l59.17.84s-.77-5.43-15-5.83a12.81,12.81,0,0,1-4.37-.89c-4.42-1.75-13.34-6.58-19.07-18.52Z" fill="#0071f2"/><rect x="126.68" y="484.59" width="60.34" height="3.51" fill="#d1d3d4"/><line x1="215.84" y1="259.74" x2="215.31" y2="246.29" fill="none" stroke="#d1d3d4" stroke-miterlimit="10"/><rect x="233.21" y="345.81" width="70.09" height="10.95" fill="#d1d3d4"/><circle cx="215.42" cy="242.04" r="4.25" fill="#d1d3d4"/><circle cx="222.63" cy="219.35" r="6.77" fill="#d1d3d4"/><circle cx="245.8" cy="243.41" r="6.77" fill="#d1d3d4"/><circle cx="215.68" cy="266.52" r="6.77" fill="#d1d3d4"/><circle cx="184.94" cy="253.15" r="6.77" fill="#d1d3d4"/><line x1="219.5" y1="225.11" x2="216.18" y2="242.63" fill="none" stroke="#d1d3d4" stroke-miterlimit="10"/><line x1="238.82" y1="242.61" x2="219.22" y2="242.14" fill="none" stroke="#d1d3d4" stroke-miterlimit="10"/><line x1="191.17" y1="250.92" x2="212.18" y2="242.63" fill="none" stroke="#d1d3d4" stroke-miterlimit="10"/><path d="M121.17,432.77s-1-37.1,2.5-52.65c0,0,5-37.11-1-54.15,0,0-14.39-20.2,5.16-41.76,0,0,16.9-9.39,32.2-6.38,0,0,11.15,6.87,14.83,44a60.12,60.12,0,0,1-1.13,16.31,125.26,125.26,0,0,0-2.26,13.76l-9.19,78.89S141.22,436.78,121.17,432.77Z" fill="#2f2e41"/><path d="M185,263.46l28.92-12.88s6.76-1.78,7.12-11c0,0,1.42-12.45,9.25-13.52l15.65-.35s5.34,3.2-12.09,2.84c0,0,8.54,3.2,7.11,5.34,0,0,2.14,6.4-3.91,6.4l-5.34-.71s-.44,11-13.25,18.82c0,0-16.36,14-26.32,17.55,0,0-6,3-18-.91C174.19,275,178.42,273,185,263.46Z" fill="#f9b499"/><path d="M112.89,235.7s-4.53-4.35-11.4.44a17.9,17.9,0,0,0-6,7.39c-3.4,7.54-10.08,25.57,2.36,28.53,0,0,4.26,9.28,11,5.77l-.25-33.35S109.13,236.46,112.89,235.7Z" fill="#0071f2"/><path d="M112.89,235.7s-4.53-4.35-11.4.44a17.9,17.9,0,0,0-6,7.39c-3.4,7.54-10.08,25.57,2.36,28.53,0,0,4.26,9.28,11,5.77l-.25-33.35S109.13,236.46,112.89,235.7Z" opacity="0.2"/><path d="M155.51,231.44s5.52,2,8.78,5.52c0,0,15.29,8.27,19.31,21.56l1.44,3.42a2.72,2.72,0,0,1-.26,2.59c-2.12,3.1-7.9,10.89-12.72,11.29,0,0-6-1.5-9-6.52C163,269.3,163.79,242.73,155.51,231.44Z" fill="#0071f2"/><path d="M155.51,231.44s5.52,2,8.78,5.52c0,0,15.29,8.27,19.31,21.56l1.44,3.42a2.72,2.72,0,0,1-.26,2.59c-2.12,3.1-7.9,10.89-12.72,11.29,0,0-6-1.5-9-6.52C163,269.3,163.79,242.73,155.51,231.44Z" opacity="0.2"/><path d="M136.65,224.18v5.66H124.6V213.67l.36-.18c1.55,6.09,5.67,10.77,10.52,10.77A7.5,7.5,0,0,0,136.65,224.18Z" fill="#f9b499"/><path d="M136.64,226.4v-2.22a19.64,19.64,0,0,1-7.64-4.44S131.1,225.73,136.64,226.4Z" fill="#f7a48b"/><path d="M146.66,208.52c0,8.15-4.39,14.84-10,15.66a7.5,7.5,0,0,1-1.17.08c-4.85,0-9-4.34-10.52-10.42a21.72,21.72,0,0,1-.65-5.32c0-8.68,5-15.72,11.17-15.72S146.66,199.84,146.66,208.52Z" fill="#f9b499"/><path d="M141.47,229.69s.25-3.51-5.26-3.26l-11.53-.5s-5.27,0-5,6c0,0-11,1.76-11,13.79v38.36s-.75,7.78,10,4.52c0,0,26.32-14.54,41.37-10.78,0,0,3.51,0,3-8.53,0,0,.5-25.59-5.53-35.8a8.24,8.24,0,0,0-7.31-4Z" fill="#0071f2"/><path d="M113.64,256.77h3.26s-.11-42.86,3.15-44.11c0,0-6.82-11.1,3.87-20.08l8.28-6.27s-6.52-12.28-16-.25c0,0-7.53,9.12-10.68,40.2-.22,2.15-.37,4.31-.41,6.47l-.44,24.79Z" fill="#2f2e41"/><path d="M113.64,256.77h3.26s-.11-42.86,3.15-44.11c0,0-6.82-11.1,3.87-20.08l8.28-6.27s-6.52-12.28-16-.25c0,0-7.53,9.12-10.68,40.2-.22,2.15-.37,4.31-.41,6.47l-.44,24.79Z" opacity="0.2"/><ellipse cx="128.13" cy="189.71" rx="5.59" ry="3.38" transform="translate(-69.33 73.87) rotate(-25.57)" fill="#0071f2"/><path d="M127.54,205.44s5.59-11.76,16.47-7.35c0,0,5.88-2.06-6.18-7.94a16.76,16.76,0,0,0-11.53.79,15.35,15.35,0,0,0-8.42,12.9c-.34,4.41.46,10,6.71,13.48v-3.65Z" fill="#2f2e41"/><ellipse cx="124.6" cy="208.53" rx="3.53" ry="5.15" fill="#f9b499"/><circle cx="325.59" cy="296.91" r="5.57" fill="#d1d3d4"/><g clip-path="url(#ecaea8f2-fc8c-4005-90b5-9d78d30c960f)"><polygon points="224.08 498.89 189.98 617.9 200.01 617.9 233.44 500.23 224.08 498.89" fill="#d1d3d4"/><polygon points="290.27 617.23 256.84 498.22 267.54 498.22 302.31 616.56 290.27 617.23" fill="#d1d3d4"/><polygon points="492.06 321.98 492.12 339.55 521.68 336.86 526.52 302.46 517.92 297.63 492.06 321.98" fill="#f9b499"/><path d="M492.12,339.55l.16-15.37s16.89-1.56,22.75-6.25C515,317.93,512.45,339.2,492.12,339.55Z" fill="#f7a48b"/><polygon points="697.38 589 697.38 618.4 707.86 618.4 707.86 589.87 697.38 589" fill="#bcbec0"/><path d="M596.05,562.52l12.36,54.69,30.2,0-.29-24.78L672,592s22.58-5.32,22.76-24.28c0,0-20.6-22.06-25-26.41C669.72,541.34,640.53,575.91,596.05,562.52Z" fill="#2f2e41"/><path d="M596.05,562.52l12.36,54.69,30.2,0-.29-24.78L672,592s22.58-5.32,22.76-24.28c0,0-20.6-22.06-25-26.41C669.72,541.34,640.53,575.91,596.05,562.52Z" opacity="0.2"/><path d="M620.39,502.9l-41.82,4.94a34.75,34.75,0,0,0-30.51,38.31c1.78,15.92,7.29,38.88,19.76,71.94l40.59-.88-12.36-54.69s37.94,19,73.67-21.18C669.72,541.34,651,520.55,620.39,502.9Z" fill="#2f2e41"/><path d="M616.92,591.84s-20.33-10.92-21.57-30.42c0,0-1.2,13.69-6.55,20.37C588.8,581.79,594.52,595.19,616.92,591.84Z" fill="#bcbec0"/><path d="M599.23,242c-1.67-.13-6.48-.86-5.18-5.19,0,0,2.52-3.9,14.18-1.27l9.4,3.51.38,8.15-18.81.5a2.9,2.9,0,0,1-3-.95,2.5,2.5,0,0,1,.76-3.41,10.14,10.14,0,0,1,2.25-1.13A.11.11,0,0,0,599.23,242Z" fill="#f7a48b"/><path d="M626.2,273.14,659,330.9l28.62,1.61A48.59,48.59,0,0,0,666.52,363s-9.15-2.16-17.84-4.83c-12.39-3.81-20.46-9.64-22.74-22.4l-17.58-66s-4.84-10.56-3.81-18.91a4.54,4.54,0,0,0-.74-3.14c-2.54-3.73-8.6-13.25-5-14.06,0,0,2.84-3.17,12.37,11.37a2.92,2.92,0,0,0,4.18.5s3-2.51-2.85-7c0,0-16.54-10.36-13.37-13.37,0,0,1.84-5.35,17.55,7.52,0,0,9.53,4.68,9.36,23.23l-.6,14.27A5.71,5.71,0,0,0,626.2,273.14Z" fill="#f9b499"/><path d="M717.51,335.37l-30.43-4.21a56.58,56.58,0,0,0-20.89,33.76,1.82,1.82,0,0,0,2.11,2.13l22.39,3.17s14.24-29.73,27.7-30.82Z" fill="#0071f2"/><path d="M717.51,335.37l-30.43-4.21a56.58,56.58,0,0,0-20.89,33.76,1.82,1.82,0,0,0,2.11,2.13l22.39,3.17s14.24-29.73,27.7-30.82Z" fill="#fff" opacity="0.2"/><path d="M715,330.4l2.5,8.86s22.23-5.85,31.6-4.18l-8.7-15.88-12.87-8S724.65,325.93,715,330.4Z" fill="#f9b499"/><path d="M620.39,502.9s56.83-159.29,97.11-163.64c0,0,40.79-14.87,60.34,7.69,0,0,23.07,17.05,28.09,61.18l-94.44,179S658.33,523,620.39,502.9Z" fill="#0071f2"/><path d="M645.07,430.53l-9.41,20.36a8.24,8.24,0,0,1-6.27,4.76l-36.17,5.54-3.83,22.93,38.43,6.35a11.38,11.38,0,0,0,7.72-2L674.75,462S653,450.69,645.07,430.53Z" fill="#f9b499"/><path d="M413.66,503.47l-63,7.91a34.75,34.75,0,0,0-30.5,38.31c1.78,15.92,5.8,34.65,18.27,67.72l60.93.34L387,563.05s34.07,19.09,69.8-21C456.79,542,441.52,520.16,413.66,503.47Z" fill="#2f2e41"/><path d="M387,563.05l12.35,54.7,30.2,0-.36-26.14,35.46-.27s7.24-6.74,9.75-21.78c0,0-12.81-23.75-17.25-28.09C457.14,541.49,426,580.15,387,563.05Z" fill="#2f2e41"/><path d="M387,563.05l12.35,54.7,30.2,0-.36-26.14,35.46-.27s7.24-6.74,9.75-21.78c0,0-12.81-23.75-17.25-28.09C457.14,541.49,426,580.15,387,563.05Z" opacity="0.2"/><path d="M730.21,391.58,833,392a5.78,5.78,0,0,1,5,8.6c-5.07,9.09-12.32,25.57-16,50.12L810.7,498.22a282.66,282.66,0,0,0-5.82,34.34c-2.37,21.64-14.12,64.24-70.16,58.59l-49.41.26S711.79,578,707.1,534.08a194.08,194.08,0,0,1-.36-40C709.88,462.4,716.92,410,730.21,391.58Z" fill="#d1d3d4"/><path d="M589.39,484.12s106.22,14.77,116.25,30.82l1.46,19.14s3.92,26.33-7.51,44.76a33.47,33.47,0,0,1-24.24,15.38c-10.76,1.39-31.69,2.24-68.78-2.41l60.17.75s22.35-.07,28-24.81c0,0,6.53-14.15,2.26-45,0,0,1.75-10.13-23.65-18.49,0,0-23.46-8-84.3-14.65Z" fill="#bcbec0"/><path d="M744.78,391.6l-4.69,0s12.85,22.66,19.2,65.79l3.88-.13S757.48,423,744.78,391.6Z" fill="#2f2e41"/><path d="M598.36,589.84c1.28.7,3.47,1,5.52,1.5a22.33,22.33,0,0,0,8.41.55l6.09,25.7-10-.38Z" fill="#bcbec0"/><polygon points="782.84 619.09 793.72 619.09 788.08 595.42 778.81 605.99 782.84 619.09" fill="#bcbec0"/><path d="M413.66,503.47s44.07,33.86,59.12,64L580.27,430.91s-3.77-58.58-26.88-84.38c0,0-43-33.86-87.06,9.68C466.33,356.21,445.9,470.15,413.66,503.47Z" fill="#0071f2"/><path d="M433.54,445.42l-37.26-13.87-23.47,16.56,60.53,42.58a22.25,22.25,0,0,0,11.26,4.12c4,.27,8.51-.56,11.68-4.63Z" fill="#f9b499"/><path d="M438.33,435s-11.54,3-13,3a72.63,72.63,0,0,0-13,1L358.1,451.59l-58.29-49.5,3-2.67L359,448.22l51.15-12.36s10-7.36,16.38-.67l13.37-5Z" fill="#2f2e41"/><path d="M362,437.19l-3,11-56.16-48.8-.66-8.27a0,0,0,0,1,.06,0Z" fill="#e6e7e8"/><path d="M362,437.19s45.12-15.92,48.14-1.33L359,448.22Z" fill="#d1d3d4"/><path d="M426.51,435.19s-3.57-3-7.83-2.72L446.52,414l-6.64,16.16Z" fill="#bcbec0"/><path d="M302.15,391.06s1.71-4.88,9.48-6.89l50.15,37.11s49-3.9,57.27,11.15a20,20,0,0,0-8.92,3.43s-1-5.56-16.51-5.06c0,0-12.37-.51-31.63,6.39Z" fill="#bcbec0"/><path d="M306.62,380.16l55.16,41.12s46.84-4.17,56.84,10.53a.3.3,0,0,0,.54-.07c.6-2,1.47-9.21-10.4-23.66a110.1,110.1,0,0,0-18.53-17.83c-3.78-3.16-8-6.41-12.56-9.67-4.19-3-8.25-5.6-12.13-7.94C360.61,371.39,354.75,370.38,306.62,380.16Z" fill="#e6e7e8"/><path d="M365.54,372.64s37.86-15.55,63.68-18.05l34.6,23.31L446.52,414l-27.68,18.44a0,0,0,0,1-.07-.06c.75-1.29,4.1-9.32-14.37-29.17C404.4,403.22,396.63,393.45,365.54,372.64Z" fill="#d1d3d4"/><path d="M278.07,503.9H213.55a2.16,2.16,0,0,1-2-2.95l6.32-16.08a2.18,2.18,0,0,1,2-1.37l58.19-.54a2.17,2.17,0,0,1,2.19,2.17v16.6A2.17,2.17,0,0,1,278.07,503.9Z" fill="#bcbec0"/><path d="M715,330.4l1.11,3.79s11.09-8.47,11.42-23C727.53,311.18,720.38,324.66,715,330.4Z" fill="#f7a48b"/><ellipse cx="710.95" cy="297.03" rx="18.48" ry="34.42" fill="#f9b499"/><path d="M725.14,296.63c-.38-10.21-8.77-7.86-8.77-7.86l-8.86,8a.73.73,0,0,1-1.18-.32l-4.75-15.55c-17.56,4.16-10.16-31.42-10.16-31.42s11.21,9,18.73,8.36c0,.67,10-2,15.88,7,0,0,26.41-6.85,26.91,19.22,0,0,2.84,24.24-12.54,35.1l-22.54-13.88S724.76,304.81,725.14,296.63Z" fill="#2f2e41"/><ellipse cx="718.34" cy="296.8" rx="6.47" ry="8.32" fill="#f9b499"/><path d="M644.56,429a56,56,0,0,0,34.62,34.75,3.44,3.44,0,0,0,3.89-1.2c9.32-12.73,58.66-83.53,27.91-116a7.33,7.33,0,0,0-8.1-1.72c-9.19,3.76-30.45,19.24-58.23,82.62A2.19,2.19,0,0,0,644.56,429Z" fill="#0071f2"/><path d="M644.56,429a56,56,0,0,0,34.62,34.75,3.44,3.44,0,0,0,3.89-1.2c9.32-12.73,58.66-83.53,27.91-116a7.33,7.33,0,0,0-8.1-1.72c-9.19,3.76-30.45,19.24-58.23,82.62A2.19,2.19,0,0,0,644.56,429Z" opacity="0.2"/><path d="M589.08,489.59S693.41,495.67,697,522.73c0,0,11.32,67.65-30.29,69.83l-54.45-.67c-5.93-.08-12.89.16-17.44-3.64a17.15,17.15,0,0,1-5.53-7.72" fill="none" stroke="#d1d3d4" stroke-miterlimit="10" stroke-width="2"/><path d="M564.73,592.16a23.15,23.15,0,0,0,24.07-10.37s6-6,8.36-28.41c0,0,5-37.44-10.37-43.46,0,0,.52,16.89,2.66,26.27a52.68,52.68,0,0,1,1.42,11.32c.06,9.49-1.25,25.22-9.76,33.28C581.11,580.79,572.08,590.49,564.73,592.16Z" fill="#bcbec0"/><path d="M761.92,456.34c-.43-3.58-3.81-29.27-17.14-64.74l10.18.08s13,43.69,17.13,62.37a4.77,4.77,0,0,0,3.1,3.48c9,3.17,39.18,17.19,42.31,51.58L787,601.52s-6.35,12-19.06,5L703.8,572.1s-14.71-8.69-6.35-23.74l23.4-58.5s11.91-29.45,40.68-33A.44.44,0,0,0,761.92,456.34Z" fill="#0071f2"/><path d="M761.92,456.34c-.43-3.58-3.81-29.27-17.14-64.74l10.18.08s13,43.69,17.13,62.37a4.77,4.77,0,0,0,3.1,3.48c9,3.17,39.18,17.19,42.31,51.58L787,601.52s-6.35,12-19.06,5L703.8,572.1s-14.71-8.69-6.35-23.74l23.4-58.5s11.91-29.45,40.68-33A.44.44,0,0,0,761.92,456.34Z" fill="#fff" opacity="0.2"/><path d="M738.23,575.44s-15-5.68-7.69-21.73l17.7-42.9a42.8,42.8,0,0,1,12.64-17.16c6.35-5.08,15.52-9.34,27.38-7.11a40.47,40.47,0,0,1,22.87,13.6c5.4,6.25,11.19,15.73,11.56,27.89a40.74,40.74,0,0,1-3.27,16.78l-19.68,47.35s-3,13.37-17.72,6.68Z" fill="#2f2e41"/><path d="M756.05,527.63l46.73,26.27a3.65,3.65,0,0,1,1.66,4.36l-10.66,31.16a3.65,3.65,0,0,1-5.18,2l-47-25.37a1.84,1.84,0,0,1-.84-2.39l12.72-35.2A1.86,1.86,0,0,1,756.05,527.63Z" fill="none" stroke="#fff" stroke-miterlimit="10" opacity="0.2"/><path d="M774.56,521.93l25.36,14.93a3,3,0,0,0,4.16-1c3.3-5.42,9.57-18.53.6-28.36a13.67,13.67,0,0,0-4.13-3c-5.57-2.73-19-6.61-27.28,13.69A3.07,3.07,0,0,0,774.56,521.93Z" fill="none" stroke="#fff" stroke-miterlimit="10" opacity="0.2"/><path d="M729.2,493.21a56.69,56.69,0,0,1,16.15-19.7,43.38,43.38,0,0,1,11.28-6.21,40.36,40.36,0,0,1,12.68-2.41,47.85,47.85,0,0,1,12.79,1.58,52.44,52.44,0,0,1,12,4.6,44.26,44.26,0,0,1,10.28,7.69l2.17,2.37c.66.85,1.27,1.72,1.91,2.58.31.44.64.86.94,1.3l.79,1.39,1.57,2.79-1.72-2.69-.84-1.35c-.32-.43-.66-.84-1-1.25-.67-.83-1.31-1.67-2-2.48L804,479.17a43.53,43.53,0,0,0-10.29-7.31,55.79,55.79,0,0,0-11.85-4.35,46.48,46.48,0,0,0-12.51-1.45A39.11,39.11,0,0,0,757,468.3a45.56,45.56,0,0,0-5.76,2.57,55.1,55.1,0,0,0-5.35,3.36,56.17,56.17,0,0,0-9.31,8.6A60.37,60.37,0,0,0,729.2,493.21Z" fill="#2f2e41"/><path d="M703.88,532.24l9.65-24.14a359.05,359.05,0,0,1,7.35-80.56c2.6-12.51,5.46-25.63,9.33-36a115.43,115.43,0,0,0-22.58,44.92c-.14.58-.29,1.14-.43,1.7a176.55,176.55,0,0,0-5.77,42.65c-.16,17.35.17,34.69,2.45,51.39" fill="#2f2e41"/><path d="M719.15,494s.54-77.38,11.06-102.46c0,0-25.32,41.19-24.93,104.77l.46,31.59Z" fill="#0071f2"/><path d="M719.15,494s.54-77.38,11.06-102.46c0,0-25.32,41.19-24.93,104.77l.46,31.59Z" fill="#fff" opacity="0.2"/><ellipse cx="498.04" cy="294.94" rx="23.11" ry="33.32" fill="#f9b499"/><path d="M477.61,279.89s-2.15-23.11,19.35-23.11c0,0,25.26-8.06,39.77,21,0,0,15,13.44,16.13,55.89,0,0,1.61,37.09-1.62,57.51l-38.69-1.07s10.11-66.19,11.77-87.11l-3.71-15.55s-4.52,4.52-10.24-5.9a14.24,14.24,0,0,0-6.31-5.9C497.07,272.21,484.09,268.07,477.61,279.89Z" fill="#2f2e41"/><ellipse cx="524.32" cy="294.65" rx="6.47" ry="8.32" fill="#f9b499"/><path d="M497.5,428.23c-9,28.84-31.3,54.34-37.23,60.78a4.08,4.08,0,0,1-4,1.18c-19-4.57-22.75-44.77-22.75-44.77L447,412.17a46.29,46.29,0,0,0,3.44-16.87c.11-10.76,2.33-30.06,15.88-39.09,0,0,29-19.89,36,11.28C502.33,367.49,510.93,385.23,497.5,428.23Z" fill="#0071f2"/><path d="M497.5,428.23c-9,28.84-31.3,54.34-37.23,60.78a4.08,4.08,0,0,1-4,1.18c-19-4.57-22.75-44.77-22.75-44.77L447,412.17a46.29,46.29,0,0,0,3.44-16.87c.11-10.76,2.33-30.06,15.88-39.09,0,0,29-19.89,36,11.28C502.33,367.49,510.93,385.23,497.5,428.23Z" opacity="0.2"/><path d="M618.35,396.58c-5.83,9.72-18.93,36.92-29.45,97.8-.3,1.7-.63,3.38-1,5.07-.77,3.41-1.52,12.59,1,30.4.26,1.84.6,3.69,1,5.5,2.15,8.83,8.72,44.89-23.9,56.89l-103-1.09s26-16.3,18.92-67.92A196.36,196.36,0,0,1,479.94,492c.65-27.56,12.24-77.18,29.92-102.49L615.8,392A3.06,3.06,0,0,1,618.35,396.58Z" fill="#d1d3d4"/><path d="M369.26,490.27s-18.82,4.28-11.55,28.65l21,59s6.84,12.83,17.1,14.54c0,0-18.38,4.27-28.64-13.69l-20.95-57.71S337.19,486.42,369.26,490.27Z" fill="#bcbec0"/><path d="M420.56,496.26s61.14,5.13,65.42,24.37c0,0,9.4,68.83-24.8,71.83H449.53s24.05-5.14,26.61-39.35l-.72-25.3a22.29,22.29,0,0,0-9.3-17.66,38.16,38.16,0,0,0-13.92-5.78S434.67,498.39,420.56,496.26Z" fill="#bcbec0"/><path d="M365,490.27c44-.43,87.22,14.11,87.22,14.11a38.17,38.17,0,0,1,14,5.85,22.42,22.42,0,0,1,9.29,17.15L476.57,548c.35,27.67-16.09,39.67-22.39,43.25a9.56,9.56,0,0,1-4.65,1.23l-60.18.41c-16.67-.85-22.23-14.11-22.23-14.11l-17.53-49.16c-9.41-20.53-1.71-31.64-1.71-31.64S354.29,489,365,490.27Z" fill="none" stroke="#d1d3d4" stroke-miterlimit="10" stroke-width="2"/><rect x="208.21" y="479.01" width="222.64" height="6.55" fill="#d1d3d4"/></g></svg>